<?xml version="1.0" standalone="no"?>
<!DOCTYPE svg PUBLIC "-//W3C//DTD SVG 1.1//EN" "http://www.w3.org/Graphics/SVG/1.1/DTD/svg11.dtd" >
<svg xmlns="http://www.w3.org/2000/svg">
<metadata>
This is a custom SVG webfont generated by Font Squirrel.
Copyright   : Generated by Fontographer 35
</metadata>
<defs>
<font id="PhonesNormalA" horiz-adv-x="966" >
<font-face units-per-em="1000" ascent="800" descent="-200" />
<missing-glyph horiz-adv-x="1000" />
<glyph unicode=" "  horiz-adv-x="1000" />
<glyph unicode="&#x09;" horiz-adv-x="1000" />
<glyph unicode="&#xa0;" horiz-adv-x="1000" />
<glyph unicode="0" horiz-adv-x="976" d="M926 718q-14 62 -74 108q-51 39 -133 63q-60 17 -129 25.5t-122 8.5q-72 0 -154 -11.5t-155 -40.5q-65 -25 -103 -59q-44 -40 -53 -94h253q0 33 33 46q23 9 63 9h229q36 0 63.5 -12.5t27.5 -42.5h254zM0 697v-37q0 -24 25 -24h209q24 0 24 22v39h-258zM930 697h-258v-39 q0 -22 24 -22h209q25 0 25 24v37zM167 580h595l43 -564h-687zM149 598l-54 -599h733l-48 599h-631zM747 58l-3 36h-559l-2 -36h564zM701 550h-475l-3 -36h481zM354 124h66l6 72h18l6 -72h144v132l24 -132h72l-48 186l12 174h-60l-6 -108l-18 108h-60l30 -174l-18 -156 l-36 330h-97zM432 280l6 126l6 -126h-12zM239 124h66l12 156h40l3 84h-37v36h43l2 84h-99z" />
<glyph unicode="1" horiz-adv-x="1337" d="M335 515h87l16 72h52l5 36h-52l5 16h47l10 36h-129zM588 587l10 52l5 -52h-15zM490 515h87l6 31h30v-31h93h98l6 62l31 -62h93l-57 82l10 78h-83l-5 -47l-20 47h-78l36 -78l-31 -72l-46 150h-119zM942 453l-5 20l-607 1l-5 -21h617zM957 396l-6 21h-636l-5 -20zM974 329 l-5 21h-671l-6 -21h682zM993 257l-7 26h-706l-6 -26h719zM1014 175l-8 30h-746l-7 -28zM1036 93l-8 30h-789l-9 -31zM303 701h665l203 -687h-1063zM1131 257h143v263l-160 403h-955l-159 -403v-263h144l-74 -257h1132z" />
<glyph unicode="2" horiz-adv-x="1337" d="M1130 252h144v263l-165 408h-955l-154 -408v-263h139l-78 -252h1141zM296 701h674l196 -687h-1069zM552 288l30 201l11 -201h-41zM866 334l67 -232h166l-140 274l-15 252h-98l5 -191l-57 191h-108l56 -263l-15 -129l-72 392h-134l-47 -201l-77 5l15 114h72l11 82h-181 l-150 -526h171l41 243h72l-82 -243h149l16 98h67l5 -98h253z" />
<glyph unicode="3" horiz-adv-x="1299" d="M1238 0v370h-212l-20 -155h-780l-20 155h-206v-370h1238zM262 247h713l62 676h-842zM288 268l-62 634h780l-52 -635z" />
<glyph unicode="4" horiz-adv-x="1299" d="M923 830h-625l4 -41h618zM914 719l-606 -2l4 -37h599zM905 612h-587l3 -34h582zM898 517h-572l3 -28h566zM890 428l-556 -2l3 -25h551zM884 353h-543l2 -26h539zM283 272l-57 635h780l-52 -636zM263 252h711l63 671h-842zM1238 0v376h-212l-20 -161h-785l-10 161h-211 v-376h1238z" />
<glyph unicode="5" horiz-adv-x="1115" d="M235 702h611l52 -683h-714zM215 722l-57 -722h760l-51 722h-652zM840 131h-606l-3 -41h612zM834 229h-593l-3 -41h598zM828 317h-581l-3 -41h586zM821 415h-568l-2 -41h573zM814 513h-554l-3 -41h560zM807 621h-540l-2 -41h545zM0 923v-791h138l51 626h698l52 -626h123 v791h-1062z" />
<glyph unicode="6" horiz-adv-x="1297" d="M918 651h-611l-4 -42h618zM926 543h-628l-3 -41h634zM934 445h-643l-3 -41h649zM941 347h-658l-3 -41h664zM948 259h-672l-3 -42h678zM956 161h-687l-3 -42h693zM247 752h739l58 -724h-861zM0 923v-770h163l-15 -153h939l-15 153h164v770h-1236z" />
<glyph unicode="7" horiz-adv-x="1251" d="M994 650h-601l-3 -40h607zM1002 543h-618l-3 -41h625zM1010 445h-634l-2 -41h639zM1018 347h-649l-3 -42h654zM1024 259h-662l-3 -42h668zM1031 161h-676l-4 -41h684zM333 752h729l58 -724h-851zM0 923v-771h249l-15 -152h929l-15 152h44v771h-1192zM36 822h63v-63h-63 v63zM36 730h63v-64h-63v64zM36 638h63v-64h-63v64zM36 545h63v-63h-63v63zM128 822h64v-63h-64v63zM128 730h64v-64h-64v64zM128 638h64v-64h-64v64zM128 545h64v-63h-64v63zM220 822h64v-63h-64v63zM220 730h64v-64h-64v64zM220 638h64v-64h-64v64zM220 545h64v-63h-64v63z " />
<glyph unicode="8" horiz-adv-x="1250" d="M533 87h101l10 116h27l9 -116h221v212l37 -212h110l-73 299l18 281h-92l-9 -174l-28 174h-92l46 -281l-27 -251l-55 532h-148zM653 338l9 203l9 -203h-18zM358 87h102l18 251h60l4 136h-55v58h65l4 135h-152zM333 752h728l59 -724h-851zM0 923v-771h249l-15 -152h929 l-15 152h43v771h-1191zM36 822h63v-63h-63v63zM36 730h63v-64h-63v64zM36 638h63v-64h-63v64zM36 545h63v-63h-63v63zM128 822h64v-63h-64v63zM128 730h64v-64h-64v64zM128 638h64v-64h-64v64zM128 545h64v-63h-64v63zM220 822h64v-63h-64v63zM220 730h64v-64h-64v64z M220 638h64v-64h-64v64zM220 545h64v-63h-64v63z" />
<glyph unicode="9" horiz-adv-x="976" d="M926 718q-14 62 -74 108q-51 39 -133 63q-60 17 -129 25.5t-122 8.5q-72 0 -154 -11.5t-155 -40.5q-65 -25 -103 -59q-44 -40 -53 -94h253q0 33 33 46q23 9 63 9h229q36 0 63.5 -12.5t27.5 -42.5h254zM0 697v-37q0 -24 25 -24h209q24 0 24 22v39h-258zM930 697h-258v-39 q0 -22 24 -22h209q25 0 25 24v37zM167 580h595l43 -564h-687zM149 598l-54 -599h733l-48 599h-631zM224 499h488l-2 36h-484zM218 411h500l-3 36h-495zM212 323h511l-2 36h-507zM206 234h522l-2 37h-518zM200 146h534l-2 36h-530zM194 58h545l-2 36h-541z" />
<glyph unicode="A" horiz-adv-x="1696" d="M197 0h1231q68 0 68 61v202q0 37 -8.5 55t-43.5 49l-310 292v68h-148v-63h-362l-6 63h-130v-63l-301 -297q-29 -27 -39 -46q-13 -24 -13 -58v-202q0 -61 62 -61zM810 361q-138 0 -235.5 34t-97.5 82q0 46 98.5 80t234.5 34q134 0 231.5 -33.5t97.5 -80.5q0 -48 -97.5 -82 t-231.5 -34zM0 623v-43q0 -11 12 -21t23 -10h272q17 0 29 7.5t12 23.5v43h-348zM1616 623h-344v-43q0 -14 11.5 -22.5t24.5 -8.5h278q11 0 20.5 9.5t9.5 21.5v43zM810 773q104 0 191 -4t166 -16.5t111 -36.5q-4 -11 -5 -24.5t-1 -36.5v-12h344q-19 108 -77 164 q-53 51 -157 75q-117 27 -212 34t-360 7q-172 0 -264.5 -4.5t-175.5 -15.5q-36 -5 -135.5 -22.5t-155.5 -70.5q-60 -57 -79 -167h348v23q0 33 -4 50q30 23 112 36.5t165 17t189 3.5z" />
<glyph unicode="B" horiz-adv-x="1499" d="M226 0h960v179l-122 329l-104 138v72q35 0 67 -20q39 -24 51 -68h350q0 94 -39 148t-131 94q-49 24 -141 35t-190 13.5t-213 2.5q-146 0 -231.5 -2.5t-156 -10.5t-127.5 -27q-130 -45 -172 -116q-27 -45 -27 -137h350q5 41 41 64.5t76 23.5v-72l-102 -119l-139 -348v-179 zM528 734q72 15 168 15t188 -15l-6 -67h-339zM1078 610q0 -47 3.5 -65t43.5 -18h257q31 0 40 22q6 15 6 61h-350zM0 610q0 -47 7.5 -65t42.5 -18h243q31 0 43 21q9 16 14 62h-350zM703 199q-85 0 -145 56t-60 134q0 81 60 138t145 57t146 -57t61 -138q0 -77 -61.5 -133.5 t-145.5 -56.5z" />
<glyph unicode="C" horiz-adv-x="1508" d="M44 551h308q12 36 24 73q17 45 44 68q139 37 307 37q149 0 272 -37q36 -43 52 -77q13 -27 20 -63l311 -1q23 6 33.5 20t10.5 34q0 23 -16 55q-21 46 -62.5 91.5t-78.5 69.5q-81 49 -233.5 75.5t-322.5 26.5q-187 0 -345 -27t-239 -76q-34 -22 -68 -67q-37 -50 -50 -97 q-5 -22 -5 -38q0 -47 38 -67zM234 236q-4 -17 -4 -48q0 -37 5.5 -68.5t15.5 -55.5q16 -36 40.5 -50t64.5 -14h725q32 0 62 17.5t43 41.5q16 25 19 67.5t3 106.5q0 21 -12 47q-5 11 -50 81q-19 32 -39 55q-33 39 -54 39q-40 0 -74 -41q-11 -14 -33 -49q-37 -59 -88 -84.5 t-128 -25.5q-88 0 -135.5 21t-100.5 90q-28 39 -41 53q-32 35 -55 35q-30 0 -68 -51q-23 -32 -30 -42q-26 -39 -38 -60q-21 -36 -28 -65zM718 323q82 0 141 52t59 126t-58 126t-142 52q-82 0 -141 -52t-59 -126t58 -126t142 -52z" />
<glyph unicode="D" horiz-adv-x="1282" d="M99 529q-16 8 -22 20.5t-6 30.5v12.5t4 17.5q10 35 36.5 70.5t52.5 51.5q59 37 182 58.5t259 21.5q130 0 245 -20.5t176 -58.5q29 -16 61 -51t49 -70q6 -14 8.5 -23t2.5 -18q0 -15 -7.5 -26t-25.5 -16l-237 1q-6 34 -20 58.5t-34 45.5q-93 30 -206 30q-129 0 -233 -30 q-17 -21 -29.5 -47.5t-21.5 -57.5h-234zM244 290q4 22 20 50q8 13 30.5 46.5t29.5 41.5q23 28 42 28q17 0 42 -26q11 -11 33 -41q40 -52 76 -68.5t103 -16.5q58 0 96 19.5t66 65.5q20 31 35 46q22 22 47 22q16 0 40 -29q16 -19 30 -43q21 -30 31 -47q17 -30 17 -50v-15 q0 -44 -3 -71.5t-14.5 -46.5t-33 -32t-47.5 -13l-548 2q-30 0 -48.5 10.5t-30.5 37.5q-8 18 -12 43.5t-4 53.5q0 19 3 33zM611 357q-64 0 -108 39t-44 95q0 57 44 96t108 39q62 0 106 -39t44 -96q0 -56 -44 -95t-106 -39zM275 913q-51 0 -100 -24q-43 -21 -80 -58 q-72 -74 -86 -184q-5 -43 -7 -91.5t-2 -94.5q0 -38 2 -69q7 -109 7 -118q6 -53 28 -99.5t58.5 -84t81.5 -59t98 -21.5t125 -3q168 -7 211 -7q54 0 126 3q168 7 208 7q53 0 99 22t83 60q73 73 84 182q4 41 7 93t3 94q0 70 -1.5 103.5t-8.5 84.5t-29 99t-57.5 84t-77.5 57 q-49 24 -102 24q-55 0 -166 5t-168 5q-54 0 -126 -3q-169 -7 -210 -7z" />
<glyph unicode="E" horiz-adv-x="1875" d="M287 868l-276 -247l-11 -271l105 -101l354 304v224h860l-1 -227l345 -301l123 107l-9 259l-256 257q-150 23 -307.5 37t-285.5 14q-156 0 -309 -13t-332 -42zM1258 707h-745v-186l-381 -333v-188h1508l-1 188l-382 333zM890 201q-129 0 -221 63t-92 152q0 88 92 151 t221 63t220.5 -62.5t91.5 -151.5t-92 -152t-220 -63z" />
<glyph unicode="F" horiz-adv-x="1507" d="M718 360q-68 0 -115.5 40.5t-47.5 99.5q0 58 47 99t116 41q67 0 115 -41t48 -99q0 -59 -47.5 -99.5t-115.5 -40.5zM281 233q2 17 17 46q10 20 31 54l28 44q23 29 47 29q19 0 49 -44l38 -58q46 -51 105 -71q51 -17 133 -17q71 0 127.5 21t87.5 67q41 56 47 63q35 39 64 39 q16 0 37 -29q21 -35 26 -44q25 -42 34 -64t9 -38v-28.5t1 -30.5q0 -35 -2.5 -55.5t-11.5 -33.5q-13 -18 -39.5 -32.5t-56.5 -14.5h-665q-36 0 -58 11.5t-36 40.5q-7 13 -11 42.5t-4 54.5q0 31 3 48zM77 588q-27 14 -27 44q0 12 1.5 19.5t7.5 24.5q10 35 49 73q32 31 66 50 q72 40 221.5 62.5t316.5 22.5q159 0 301 -22t216 -62q36 -20 68 -50q38 -36 57 -72q13 -25 16 -30q8 -17 8 -30q0 -22 -29 -30l-248 1q-6 33 -34 75q-18 27 -46 57q-61 21 -138 33.5t-157 12.5q-87 0 -178.5 -13t-157.5 -33q-19 -21 -40 -65q-16 -34 -29 -69zM44 551h309 q12 39 26 71q18 39 41 69q132 37 307 37q72 0 140.5 -9t131.5 -28q29 -33 43 -59q20 -36 28 -80h311q22 6 32.5 20t10.5 34q0 11 -4 25.5t-10 28.5q-24 48 -64.5 93t-78.5 67q-81 49 -232.5 76t-322.5 27q-183 0 -344 -27.5t-240 -77.5q-32 -19 -67.5 -67t-49.5 -95 q-3 -13 -4 -19t-1 -18q0 -24 8.5 -40.5t29.5 -27.5zM234 235q-3 -20 -3 -46q0 -39 4.5 -69.5t15.5 -55.5q17 -36 40.5 -50t64.5 -14h724q32 0 62 17.5t43 39.5t17.5 64.5t4.5 84.5v27q0 31 -31 81q-22 33 -31 47q-17 28 -40 55q-33 39 -52 39q-34 0 -63 -28q-20 -19 -45 -62 q-37 -59 -88 -84.5t-127 -25.5q-86 0 -134.5 22t-100.5 89q-30 39 -43 53q-33 35 -54 35q-31 0 -69 -51q-15 -21 -29 -42q-30 -45 -38 -59q-21 -38 -28 -67zM718 323q83 0 141 52t58 127q0 73 -58 125t-141 52q-82 0 -141 -52t-59 -125q0 -75 58 -127t142 -52z" />
<glyph unicode="G" horiz-adv-x="1436" d="M106 819q-30 -16 -49.5 -44.5t-30.5 -64.5q-7 -24 -11.5 -48t-4.5 -48q0 -33 10.5 -54.5t27 -28.5t41.5 -7q21 1 31 1q67 0 121 6t97 26q10 43 19 66q15 41 34 61q23 23 72 37q29 8 93.5 15.5t171.5 7.5q46 0 87.5 -7.5t77.5 -19.5q43 -16 69 -43q23 -24 40 -67t29 -56 q18 -21 54 -24q47 -6 84 -10.5t65 -4.5t51 5t51.5 40.5t28.5 64.5q0 33 -18.5 85.5t-38.5 75.5q-22 28 -74 50q-42 18 -86 28q-93 25 -194.5 42t-190.5 17h-16h-14h-12h-37.5t-36.5 1h-10q-63 0 -145 -10q-52 -6 -139 -22q-73 -11 -126 -25q-73 -19 -121 -45zM1216 774 q34 -17 45 -42q9 -31 14.5 -46.5t11.5 -43.5t6 -51t-5 -34q-15 0 -30.5 -0.5t-32.5 -0.5q-52 0 -84 4t-54 15.5t-35 30.5q-5 8 -21 39q-33 70 -105 96q-44 17 -89 23.5t-98 6.5q-62 0 -114.5 -1t-94.5 -5q-93 -10 -146 -35q-44 -21 -71 -55q-13 -16 -19.5 -47t-12.5 -60 q-44 -5 -83.5 -8.5t-73.5 -3.5q-48 0 -74 10q0 35 7.5 66.5t14.5 59.5q11 54 65 81q17 8 64 26q94 33 193 47t211 14q105 0 191.5 -3.5t168.5 -14.5t145.5 -28.5t105.5 -39.5zM484 496q7 -77 73 -121q60 -40 142 -40q67 0 124 49t57 116q0 103 -80 152q-53 33 -119 33 q-38 0 -87 -12t-80 -56.5t-31 -102.5q0 -12 1 -18zM774 414q-30 -36 -91 -36q-42 0 -81 18t-60 50q-16 24 -16 64q0 22 4.5 38.5t16.5 32.5q17 22 61 35t81 13q53 0 84 -41q28 -37 28 -89t-27 -85zM195 43q12 -26 43 -36q22 -7 58 -7h774q24 3 37 12.5t23 28.5q15 30 25 94 q5 31 11 99l-136 198q-19 21 -56 21q-23 0 -37 -12q-6 -6 -11 -15.5t-19 -39.5q-33 -67 -94.5 -104t-134.5 -37q-84 0 -151 34q-76 39 -111 112q-19 40 -22 43q-14 17 -45 17q-14 0 -22.5 -3.5t-22.5 -18.5q-27 -30 -59 -77q-11 -17 -87 -143q9 -53 14 -83q10 -53 23 -83z M528 178q25 -7 52.5 -10.5t60.5 -3.5q41 0 84.5 6t93.5 41q37 26 77 72q21 26 37 50q12 17 36 58q38 -28 68 -78q13 -22 27 -44q18 -45 18 -113q0 -47 -10 -78q-11 -23 -23.5 -33t-41.5 -14h-695q-31 3 -48.5 11t-28.5 23t-18 44.5t-7 58.5q0 31 7.5 53t25.5 51q8 12 22 32 q25 34 31 43q13 18 34 43q27 -68 27 -69q20 -42 46 -65q31 -28 61.5 -47.5t63.5 -30.5z" />
<glyph unicode="H" d="M123 849q-29 -11 -47 -21q-24 -14 -39 -34q-7 -10 -16 -40t-9 -49q0 -17 7 -24l226 115q5 12 13.5 21.5t19.5 11.5v-192q-26 -22 -49 -46q-32 -33 -42 -53q-10 -41 -14.5 -162t-4.5 -218q0 -33 8.5 -61.5t28.5 -45.5q13 -12 36 -22t60 -15q81 -14 167 -14q31 0 52 1.5 t54 6t57.5 9.5t46.5 15q29 13 44 53q9 25 15 69q14 106 14 215q0 91 -10 167l-97 94l-1 195q20 -10 38 -34l239 -63q0 72 -108 119q-40 17 -98 33q-145 37 -300 37q-67 0 -148 -21q-50 -13 -143 -47zM52 621q9 -4 21 -4q15 1 21 1q14 -3 21 -3q5 0 13 2.5t25 10.5q6 3 31 16 q15 8 29.5 16.5t21 15.5t9 14.5t4.5 12.5t11 13t10 15q0 9 -3.5 18.5t-13.5 27.5l-220 -118q0 -26 20 -38zM684 765l-17 -88l223 -58l26 88zM586 643h-254l1 14h81v44h100v-44h72v-14zM200 636l-8 -58l68 65v24zM735 568l-9 64l-64 24v-20zM459 136q-87 0 -149 62t-62 149 t61.5 148.5t149.5 61.5q86 0 148 -62t62 -148q0 -87 -62 -149t-148 -62zM528 201q42 20 66.5 58.5t24.5 87.5q0 65 -47 113t-113 48q-67 0 -114 -47t-47 -114t47 -114t114 -47q25 0 43 6l-27 71h-16q-35 0 -60 24t-25 60q0 34 25 59t60 25t59.5 -24.5t24.5 -59.5 q0 -51 -44 -74zM453 196q-9 0 -16 7t-7 16q0 12 8 17.5t15 5.5q10 0 16.5 -6.5t6.5 -16.5q0 -9 -7 -16t-16 -7zM399 212q-9 0 -16 7t-7 17q0 12 8 17t15 5q23 0 23 -22q0 -24 -23 -24zM356 252q-9 0 -16 7t-7 16t7 17t16 8q10 0 17 -7t7 -18q0 -9 -7 -16t-17 -7zM335 305 q-12 0 -17.5 8t-5.5 15q0 24 23 24q9 0 16 -7t7 -17q0 -9 -7 -16t-16 -7zM341 363q-10 0 -16.5 6.5t-6.5 16.5t6.5 16.5t16.5 6.5q12 0 19 -10q4 -6 4 -13q0 -10 -6.5 -16.5t-16.5 -6.5zM374 409q-9 0 -16 7.5t-7 16.5q0 10 6.5 17t16.5 7t16 -7t6 -17q0 -9 -6.5 -16.5 t-15.5 -7.5zM421 442q-22 0 -22 22q0 23 22 23q10 0 16.5 -6.5t6.5 -16.5t-6 -16t-17 -6zM479 444q-23 0 -23 24q0 10 6.5 16.5t16.5 6.5q9 0 16 -7t7 -16t-7 -16.5t-16 -7.5zM535 425q-10 0 -16.5 6.5t-6.5 16.5q0 9 7 16t16 7q12 0 19 -10q4 -6 4 -13q0 -10 -6.5 -16.5 t-16.5 -6.5zM574 377q-10 0 -16.5 6.5t-6.5 16.5t6.5 16.5t16.5 6.5q9 0 16 -7t7 -16q0 -12 -10 -19q-6 -4 -13 -4zM333 730v90h251v-90h-251z" />
<glyph unicode="I" horiz-adv-x="1348" d="M603 537q-100 -11 -167 -68t-67 -133q0 -85 79 -145t193 -60q113 0 193.5 60t80.5 145q0 75 -68 132.5t-168 68.5q-15 5 -15 23q0 14 5.5 25t20 14.5t41.5 6.5q36 0 69 17q39 20 39 50l-1 65q53 0 95 -32.5t47 -71.5q63 -15 156 -15q77 0 145 11q0 59 -18 106 q-21 54 -61 72q-75 34 -157 50t-210 16q0 19 -5 31.5t-18 14.5q-10 2 -15.5 -14t-5.5 -34q-4 -3 -52 -6t-98 -3q-67 0 -105.5 2.5t-42.5 6.5q0 18 -5.5 34t-17.5 14t-16.5 -15t-4.5 -31q-128 0 -210.5 -16t-156.5 -50q-41 -17 -60.5 -67.5t-19.5 -110.5q68 -11 146 -11 q93 0 156 15q4 38 46 71t95 33l-1 -65q0 -30 39 -50q33 -17 70 -17l32 -4q22 -5 27 -16q8 -13 8 -26q0 -16 -17 -23zM791 738v-36q0 -33 -22 -42q-14 -6 -57 -6q-17 0 -46.5 -1t-43.5 -1h-16h-14q-10 2 -15 2q-45 0 -60 5q-27 9 -27 40v39h301zM44 536q14 -5 44.5 -8 t60.5 -3q37 0 64.5 2t46 8t27 20.5t13.5 47.5q-38 -4 -82 -7t-78 -3q-54 0 -134 8q0 -27 8 -42t30 -23zM1239 536q22 7 30.5 22.5t8.5 42.5q-39 -4 -69.5 -6t-64.5 -2q-60 0 -97 3q-42 5 -63 7q5 -57 38 -68q14 -4 48.5 -7t63.5 -3q38 0 62.5 2t42.5 9zM305 409l-111 -103 q-21 -22 -31 -36q-18 -25 -18 -43v-159q0 -24 21 -46t42 -22h871q22 0 47.5 22.5t25.5 45.5v166q0 23 -28 49q-14 11 -27 23l-123 103q-17 17 -34 30q-24 17 -45 21q20 -19 35 -54t15 -74q0 -30 -10.5 -61t-33.5 -59q-41 -53 -106 -82t-156 -29q-92 0 -152.5 27t-108.5 86 q-20 25 -29.5 53.5t-9.5 57.5q0 44 19 83t42 54q-26 0 -52 -17q-13 -9 -43 -36zM752 416q-15 0 -26.5 11.5t-11.5 27.5q0 17 11 28t27 11q17 0 28 -11t11 -28t-11 -28t-28 -11zM650 435q-17 0 -28 11t-11 28q0 16 11.5 27.5t27.5 11.5t27 -11.5t11 -27.5q0 -17 -10 -28 t-28 -11zM553 422q-16 0 -27 10t-11 28q0 17 11 28t27 11q17 0 28 -11t11 -28q0 -16 -11 -27t-28 -11zM465 370q-18 0 -29 11t-11 28t11 28t29 11q15 0 27 -11t12 -28q0 -16 -11.5 -27.5t-27.5 -11.5zM439 273q-16 0 -27.5 11.5t-11.5 27.5q0 17 11 28t28 11q16 0 28 -11 t12 -28t-12 -28t-28 -11zM504 194q-17 0 -29 11t-12 29q0 16 12.5 27.5t28.5 11.5q15 0 26.5 -11.5t11.5 -27.5t-11 -28t-27 -12zM603 161q-15 0 -26.5 11.5t-11.5 28.5t11 28t27 11q17 0 28 -11t11 -28q0 -16 -11 -28t-28 -12zM710 169q-17 0 -28.5 11.5t-11.5 27.5 q0 17 11 28t29 11q16 0 27.5 -11.5t11.5 -27.5t-11.5 -27.5t-27.5 -11.5zM803 214q-16 0 -28 12t-12 28t12 28t28 12q17 0 28 -12t11 -28t-11 -28t-28 -12z" />
<glyph unicode="J" horiz-adv-x="1034" d="M721 742q0 -41 -42 -41h-147q-8 15 -22 23t-31 8q-34 0 -50 -31h-127q-39 0 -39 39v99q13 -14 15 -16q12 -10 27 -10q6 0 10 1q21 0 55 4q86 10 115 10q23 0 114 -13q42 -6 66 -6q49 0 56 33v-100zM377 352q-48 -10 -73 -43q-21 -28 -21 -65l-136 -71l-62 -108 q-5 0 -10.5 -10t-5.5 -19q0 -3 2 -9h-18v-27h852v32h-24q5 7 -2 22.5t-16 15.5l-66 103l-118 71q3 33 -17 61q-25 35 -78 47l-9 61l-53 67q13 8 13 16q-5 13 -9 25t-4 23q9 5 9 20q0 12 -9 15v65q4 3 10 20h151q37 0 54 20.5t17 50.5v104h52l-9 -57q-14 0 -14 -24 q0 -23 14 -23h168q13 0 13 19q0 23 -13 28l-23 93q-23 20 -67 20q-42 0 -60 -20h-61q0 18 -21 18q-9 0 -12 -7q-9 19 -25.5 23.5t-49.5 4.5q-15 0 -47 -4q-89 -11 -114 -11q-34 0 -70.5 5.5t-61.5 9.5q-18 1 -36 3q-18 0 -31.5 -6.5t-22.5 -24.5q-1 16 -15 16q-13 0 -17 -16 q-8 9 -25 9q-22 0 -27 -15h-42q-3 14 -31 14q-27 0 -30 -14h-34q-7 -12 -7 -19t7 -19h34l-62 -76q-4 -4 -6.5 -7t-4.5 -8q-2 -6 2.5 -12t4.5 -10q0 -12 -10 -24q0 -17 14 -17h51q-20 -31 -29.5 -57.5t-9.5 -50.5v-10q4 -36 37 -67q26 -25 78 -52q25 9 45.5 39.5t20.5 60.5 q0 14 -4 23q-37 5 -56.5 24.5t-19.5 47.5q0 22 10 42h37q19 0 19 13q2 8 -2.5 15.5t-4.5 10.5t2.5 6.5t3.5 7t1 5.5q0 5 -2.5 9t-6.5 8l-47 79h37q8 -11 27 -11q16 0 30 8v-104q0 -35 17 -53t49 -18h132q5 -15 5 -20v-65q-7 0 -7 -15q0 -16 7 -20q2 -20 -3.5 -33.5 t-5.5 -14.5q0 -7 9 -16l-48 -67zM660 253q0 -50 -55 -80q-50 -27 -124 -27q-72 0 -123 27q-56 30 -56 80t53.5 78t125.5 28q73 0 126 -27.5t53 -78.5zM391 291q0 15 -21 15q-25 0 -25 -15t25 -15q21 0 21 15zM367 253q0 8 -6.5 12.5t-16.5 4.5q-24 0 -24 -17q0 -9 6.5 -13 t17.5 -4q9 0 16 4t7 13zM396 212q0 8 -6.5 12.5t-15.5 4.5q-25 0 -25 -17t25 -17q22 0 22 17zM453 188q0 18 -26 18t-26 -18t26 -18t26 18zM448 320q0 17 -24 17q-28 0 -28 -17q0 -7 8.5 -12t19.5 -5q24 0 24 17zM509 334q0 19 -26 19t-26 -19q0 -9 8 -14t18 -5q26 0 26 19z M569 320q0 17 -22 17q-25 0 -25 -17q0 -7 8 -12t17 -5q22 0 22 17zM622 291q0 17 -26 17q-27 0 -27 -17t27 -17q10 0 18 4t8 13zM636 248q0 15 -21 15q-26 0 -26 -15t26 -15q21 0 21 15zM518 178q0 16 -23 16q-28 0 -28 -16q0 -8 7.5 -12t20.5 -4q11 0 17 3.5t6 12.5z" />
<glyph unicode="K" horiz-adv-x="1740" d="M486 651h679l67 -453h-811zM570 588l-11 -10l-6 -34l11 -11h108l10 11l2 34l-6 10h-108zM548 410l-10 -11l-3 -38l9 -7h114l11 5l3 40l-6 11h-118zM559 502l-11 -10l-4 -41l9 -6h113l11 6l4 41l-6 10h-116zM538 317l-9 -6l-6 -39l9 -12h123l9 12l2 39l-5 6h-123zM769 588 l-10 -10v-34l5 -11h113l6 11v34l-6 10h-108zM764 410l-10 -11v-40l5 -5h124l6 5l-2 40l-5 11h-118zM764 502l-5 -10l-5 -41l10 -6h113l12 6l-2 41l-12 10h-111zM759 317l-5 -6l-5 -39l10 -12h123l10 12l-3 39l-6 6h-124zM957 588l-5 -10l2 -34l11 -11h113l5 11l-5 34l-10 10 h-111zM968 410l-4 -11l1 -40l9 -5h118l10 5l-4 40l-10 11h-120zM965 502l-5 -10l1 -41l9 -6h110l10 6l-2 41l-10 10h-113zM974 317l-5 -6l3 -39l10 -12h125l5 12l-4 39l-10 6h-124zM96 0h1459v260l-318 324l-21 129h-776l-19 -132l-325 -321v-260zM1258 753l26 -154 l296 -288l78 84v199l-267 257q-300 54 -562 54q-261 0 -558 -54l-271 -262v-194l77 -89l302 300l26 147h853z" />
<glyph unicode="L" horiz-adv-x="1878" d="M1207 708h-639l-56 -53l-1 -134l-305 -268q-58 -61 -74 -131v-122h1507l-1 122q-12 75 -74 131l-306 269v135zM286 868q-179 -92 -275 -246q-6 -51 -8.5 -111t-2.5 -126v-34q36 -62 105 -104l353 306v94l109 110l641 -1l100 -97v-113l355 -299q82 35 123 110v32 q0 81 -1.5 124t-7.5 102q-49 79 -118 146q-61 60 -138 111q-159 24 -311 37.5t-282 13.5q-155 0 -309 -13t-333 -42zM585 634h600v-429h-600v429zM660 584v-51h97v51h-97zM660 493v-52h97v52h-97zM660 399v-51h97v51h-97zM660 309v-51h97v51h-97zM835 584v-51h97v51h-97z M835 493v-52h97v52h-97zM835 399v-51h97v51h-97zM835 309v-51h97v51h-97zM1016 584v-51h95v51h-95zM1016 493v-52h95v52h-95zM1016 399v-51h95v51h-95zM1016 309v-51h95v51h-95z" />
<glyph unicode="M" horiz-adv-x="1218" d="M693 874l20 -16q21 22 46 22q27 0 42 -26q-6 2 -13 3t-13 1q-40 0 -40 -36q0 -7 1 -11q70 -134 130 -205q41 -49 96 -87q65 -45 84 -63q12 -10 12 -16q0 -12 -22 -12q-7 -1 -11 -1q-54 0 -100 40q-50 43 -69 114q-11 50 -53 50q-15 0 -31 -4l161 -207q19 -26 25 -49 q46 -25 86 -25t63.5 24.5t23.5 57.5q0 23 -12 46q-25 40 -82 74q-72 42 -104 74q-65 64 -117 184q12 14 12 33q0 8 -3 17q-9 21 -23 33t-36 12q-30 0 -73 -27zM701 696q25 35 25 78q0 62 -50 100q-11 10 -23 17t-32 16h-24q-158 -20 -308 -94q-129 -64 -257 -171 q-11 -13 -15 -25q-13 -39 -13 -85q0 -24 5.5 -50t25 -49t50.5 -30l455 -397q10 -5 20 -5t20 5q99 50 191 106q84 51 184 120q10 6 11 18q0 45 -12.5 93t-28.5 66zM114 391l-18 14q45 0 60 3q27 6 55 27q14 12 23.5 25.5t16.5 30.5q5 17 5 31q0 27 -12 51q-1 6 -1 17 q0 49 36 78v-24q-22 -24 -22 -58q0 -11 3 -20.5t5.5 -24.5t2.5 -26q0 -58 -43 -91t-111 -33zM492 769v-38l-21 8l-121 -59q-4 10 -14 21q77 46 156 68zM585 699q0 73 -51 108l31 11q-2 -4 -2 -12q0 -13 11 -31q5 -7 10 -20.5t10 -37.5q4 -10 12.5 -13t24.5 -3q12 0 26 1 t15 1q9 -1 13 -1q-32 -15 -60 -15q-23 0 -40 12zM671 673q10 5 16 5t13 -7l198 -256q5 -5 5 -12t-7 -11l-321 -182q-8 -3 -15 -3q-10 0 -16 6l-190 282q-5 8 -5 13q0 11 14 18zM646 392l28 -41l-35 -19l-29 41zM702 422l-36 -19l29 -42l36 21zM757 452l29 -40l-34 -19 l-30 41zM606 450l24 -35l-37 -20l-24 36zM661 480l25 -35l-36 -19l-25 34zM717 508l-36 -19l26 -34l35 19zM678 563l25 -35l-37 -19l-26 35zM622 534l25 -35l-36 -18l-25 36zM567 506l25 -36l-37 -19l-26 36zM530 560l24 -34l-39 -20l-24 35zM609 554l-35 -19l-24 34l35 17z M641 614l-38 -19l24 -33l37 19zM758 460l-45 -24l-8 -9l-2 3l-46 -25l-9 -8l-1 4l-47 -25l-15 -18l37 -53l45 25l7 8l3 -4l46 27l9 9l2 -3l45 25l15 17zM719 516l31 -44l-17 -18l-45 -24l-3 3l-7 -9l-46 -25l-2 4l-9 -8l-46 -24l-32 45l17 18l47 25l3 -4l7 8l46 24l3 -5 l6 10zM709 527l-17 -19l-45 -23l-2 2l-8 -7l-46 -24l-2 3l-7 -9l-47 -24l-31 45l16 19l49 24l2 -4l7 9l45 24l3 -4l6 7l47 24zM672 581l-29 39l-48 -22l-7 -7l-2 2l-44 -21l-7 -8l-3 3l-49 -24l-17 -18l30 -43l49 24l6 8l3 -2l45 23l7 7l2 -3l47 24z" />
<glyph unicode="N" horiz-adv-x="1659" d="M291 520q-2 -23 -21 -52q-56 -86 -66 -115q-16 -45 -26 -106.5t-10 -120.5q0 -46 7 -80q58 -24 150.5 -35t201.5 -11q84 0 200 6q28 1 177 11q94 6 125 6q23 -1 30 -1h18q73 0 172 7t99 20l10 274q0 62 -42 115q-60 75 -89 75l353 4q-20 117 -38 169q-30 86 -90 142 q-35 32 -96.5 46.5t-122.5 14.5q-41 0 -286 21q-117 10 -191 10q-184 0 -219 -1.5t-94 -12.5q-99 -16 -206 -55t-198 -91q-18 -37 -28.5 -105.5t-10.5 -117.5q36 0 103 -5q161 -12 188 -12zM353 561h-73q-70 0 -128 4.5t-98 18.5q0 44 6.5 89t20.5 74q98 38 149 56 q92 32 160 47q86 19 165 19q64 0 186.5 -2.5t153.5 -2.5q101 0 191 -8t198 -24q89 -13 134 -54q36 -33 85 -126q-14 -14 -63 -20.5t-105 -6.5q-17 0 -34.5 0.5t-39.5 3.5l-4 -45l262 4v-24q-22 -6 -52.5 -8t-68.5 -2q-49 0 -130.5 3.5t-91.5 3.5l-3 88q0 15 -125.5 23.5 t-295.5 8.5q-135 0 -247.5 -5t-141.5 -14l-4 -27l-228 -10v-20q9 -10 56 -13.5t106 -3.5h56q2 -3 2.5 -12.5t1.5 -14.5zM239 84q-4 18 -6 42t-2 45q0 49 13 130l14 86q18 14 59 58q61 65 103 65q8 44 17 88q14 9 30.5 12.5t38.5 3.5q20 0 54 -2.5t40 -2.5q29 0 48 8 q0 -3 5.5 -9.5t5.5 -9.5h272l6 27q42 0 86.5 -1t88.5 -2q0 -26 5.5 -54.5t15.5 -54.5q7 0 67 -34t67 -34q20 -40 28.5 -77t8.5 -72q0 -23 -4 -62q-9 -87 -9 -127q-15 -7 -96.5 -16.5t-193 -16t-225.5 -6.5q-68 0 -134.5 -0.5t-130.5 -0.5q-119 0 -185.5 3.5t-86.5 13.5z M768 505q-126 0 -175 -17q-85 -29 -85 -120q0 -16 3 -34q47 -29 115.5 -42.5t139.5 -13.5q43 0 82.5 4t71 10.5t65.5 39.5q41 40 41 81q0 8 -1 12q-4 30 -71 50q-46 14 -186 30z" />
<glyph unicode="O" horiz-adv-x="937" d="M593 923q-213 -91 -377.5 -275t-215.5 -389q0 -58 11 -90.5t40 -70.5q-12 -23 -22.5 -61.5t-10.5 -74.5q0 -51 16 -85q20 -42 63 -59q21 -9 44 -9q33 0 64.5 15t52.5 39q50 57 113 181q49 102 98 205q53 108 84 137q30 26 72 44.5t71 18.5l-29 30q-78 0 -144 -75 q-50 -57 -102 -168l-76 -172q-52 -104 -92 -155q-56 -70 -108 -70q-16 0 -30.5 5.5t-31.5 19.5t-26.5 39.5t-9.5 57.5q0 59 27 103q21 -23 25 -28q16 -18 27 -25q12 -12 29 -12q14 0 27 8.5t19 20.5l104 173q5 9 5 20q0 16 -11 28.5t-18 9.5l-39 -68l-19 -6l46 86 q-33 25 -68 35q50 97 109 172q53 68 123 130q54 48 137 107q12 -20 24 -41q16 -29 28 -40q18 -20 37 -20q11 0 20 9l191 133q15 10 15 30q0 17 -15 32l-81 -58l-24 7l93 69q-51 50 -128 71q-59 16 -137 16zM132 427q60 111 124 186q74 86 169 147l46 19q-115 -79 -205 -185 q-72 -84 -146 -208zM206 242l-58 41l24 5l51 -24zM103 86q-34 34 -51.5 75t-17.5 81q25 -69 37.5 -90.5t36.5 -41.5zM771 807q-69 39 -107 54t-83 21q13 3 18 3.5t17 0.5q42 0 95 -13t102 -37zM587 733v34l63 -70l-22 -16z" />
<glyph unicode="P" horiz-adv-x="470" d="M210 258l-67 -246l40 -12l21 1q8 2 14 26l48 178q2 6 2 17q0 20 -16 24zM390 914l-65 -247l41 -11q19 -6 29 23l51 191q1 3 1 11q0 7 -2 10q-2 8 -10 10zM360 922q-81 0 -183 -105q-81 -83 -137 -289q-20 -73 -27 -145t-7 -140q0 -32 9.5 -64t27 -68.5t35 -58.5t39.5 -34 l66 246q-28 8 -30 27t-3 29.5t-1 13.5q0 15 5 37l61 224q5 20 14 36q5 10 19 28t34 18q3 0 11 -2z" />
<glyph unicode="Q" horiz-adv-x="641" d="M382 273l161 -224q5 -7 16 -4q33 20 49 45q5 6 -3 14l-156 206q-7 6 -39 -11t-28 -26zM249 641l71 19q16 6 14 21l-29 209q-2 9 -11 11l-85 15q-14 2 -14 -8zM183 911q-3 7 -9 7q-8 0 -55 -18q-17 -6 -61.5 -42.5t-47.5 -54.5t-6 -65.5t-3 -91.5q0 -91 14 -167t40 -144 q42 -107 101 -178q71 -86 183 -141q25 -11 68 -11q33 0 57 4.5t52 16.5q1 1 5.5 8t1.5 12l-149 213q-3 2 -10.5 2t-12.5 1q-12 0 -25.5 -1t-26.5 -2q-12 0 -17 1q-27 16 -53.5 59t-49.5 104q-19 53 -31 106t-12 86q0 10 1 14q6 -3 17.5 -4t12.5 -1q17 0 33 3t17 5 q15 10 14 16zM591 104q-20 -17 -40 -33q-2 -5 -3 -10q18 13 24 18q17 13 19 25zM252 686l-6 31q2 -3 12 -3q14 0 31 4t22 10l1 -21l-4 -7q-2 -4 -28.5 -11t-27.5 -3zM245 723l-3 16q34 0 47.5 1.5t18.5 7.5l1 -13q-3 -5 -21.5 -8.5t-42.5 -3.5zM214 643q-3 -4 -12.5 -6 t-23.5 -2q-22 0 -40 5q-23 4 -36 10q-20 9 -21 23q10 -8 25 -13t44 -11t64 -6zM83 330q8 3 12 -4q40 -59 60 -88q36 -52 62 -74q4 -6 6.5 -19.5t4.5 -18.5q-44 39 -83 95q-34 50 -62 109zM297 186q-2 -6 -3 -16t-1 -21q0 -13 2 -29t4 -23q-7 6 -13 27.5t-6 41.5q0 13 4.5 26 t15 27t25.5 16q-11 -15 -16 -22q-8 -12 -12 -27zM401 260q16 11 33 22q9 5 13 5l11 -14q-5 1 -19 -8q-10 -6 -27 -17zM503 119l50 34l18 -19l-51 -34z" />
<glyph unicode="R" horiz-adv-x="605" d="M213 773q-68 -162 -75 -181q-42 -104 -68 -190q-11 -33 -18.5 -63.5t-7.5 -51.5q0 -13 3 -22l51 -182q-27 -10 -36.5 -25t-9.5 -44q-18 -15 -24 -31t-6 -54q-21 -11 -21 -38q0 -17 8 -29.5t22 -12.5l6 14q-9 0 -15 10t-6 22q0 11 6 16q4 -18 22.5 -27.5t40.5 -9.5t27 12 q7 21 -18.5 38.5t-51.5 14.5q-1 4 -1 12q0 12 4.5 25.5t10.5 19.5q8 -18 23.5 -26t35.5 -8q24 0 31 9q2 3 2 9q0 17 -21.5 32.5t-44.5 15.5q-4 0 -12 -2q-2 8 -2 10q0 15 13 24.5t23 9.5l33 -48q6 -8 22 -12.5t29 -4.5h176q10 0 16 9q10 15 10 40q0 8 -2 16l-75 209 q-2 10 -4 22t-2 23q0 19 6 36l99 284q9 25 68 40q30 8 40 27l52 84q2 4 2 14q0 16 -2.5 28.5t-7.5 15.5l-77 47q-40 22 -75 22q-30 0 -68 -23q-28 -19 -41 -27q-39 -25 -55.5 -43.5t-34.5 -55.5zM321 786q-9 -14 -37 -20t-33 -19l-110 -287l-19 -5l114 307q4 6 24 12 q44 14 47 17l48 71l28 19zM445 720l-19 -5q-28 6 -45 19t-17 28q0 11 15 44q9 18 18 37q2 -7 6 -14.5t4 -13.5q-7 -13 -13 -26t-6 -31q6 -14 17 -20q21 -9 40 -18zM203 179q20 -58 58 -58q23 0 52 20l3 -14q-16 -12 -31.5 -17t-29.5 -5q-24 0 -40.5 11.5t-21.5 29.5l-24 71 q0 2 8 7t11 7zM251 246h-38l47 9q16 7 23 -9l-23 -6zM141 104l-67 209l10 12l72 -236zM350 47l-137 4v10h155zM260 663l23 -5l-10 -38l-27 9zM213 525l23 -4l-10 -39h-28zM236 597l24 -6l-9 -37l-30 5zM188 449l25 -4l-10 -38l-29 5zM307 648l24 -4l-10 -33l-28 4zM260 516 l23 -5l-10 -39l-27 5zM283 587l24 -10l-9 -33l-29 5zM236 445l24 -5l-9 -38l-30 5zM355 634l28 -5l-15 -32l-28 5zM307 506l24 -4l-10 -33h-28zM331 571l24 -2l-10 -34l-29 4zM283 434h30l-15 -37l-29 5zM42 -81q0 6 7 6q11 0 29.5 -11.5t15.5 -17.5q-2 -3 -9 -3 q-14 0 -28.5 7.5t-14.5 18.5zM70 9q0 11 9 11q13 0 32 -16t16 -22q-3 -5 -15 -5q-15 0 -28.5 8t-13.5 24z" />
<glyph unicode="S" d="M603 781q0 -39 -11 -83q-14 -49 -43 -85q20 -9 35 -9t24 6.5t17 19.5t17 45.5t9 51.5q0 22 -12.5 34t-35.5 20zM94 191q8 -2 10 -2q9 0 14 7t5 16q-19 28 -34 55t-22 49q-21 66 -21 142q0 88 27.5 160t90.5 135.5t135 92t154 28.5q86 0 164.5 -30.5t136.5 -89 t88.5 -137.5t30.5 -164q0 -82 -28 -153q-44 -112 -153 -185.5t-233 -73.5q-102 0 -162.5 32t-60.5 85q0 13 3.5 22.5t13.5 22.5q6 -6 13.5 -12.5t13.5 -8.5q15 5 36 25t35 41q10 15 22 38t15 37q-27 21 -27 52q0 32 17 76q9 22 22 49l52 89q14 22 32 26.5t46 4.5 q26 38 39 87q6 20 8 40t2 41q-24 6 -45 6q-39 0 -74 -19q-30 -16 -50 -42q-54 -68 -96 -139q-47 -81 -69 -153q-12 -38 -20.5 -77t-8.5 -69q0 -22 2.5 -36t9.5 -31q-15 -18 -22.5 -37t-7.5 -41q0 -33 20 -62.5t52.5 -47t82 -29t106.5 -11.5q90 0 175 34q57 23 109.5 65 t87.5 90q40 58 64.5 128.5t24.5 141.5q0 67 -21 132t-57.5 121.5t-91.5 103t-116 69.5q-83 31 -184 31q-42 0 -81 -6q-63 -11 -123.5 -43t-111.5 -82q-64 -64 -99 -149t-35 -177q0 -77 23 -145.5t71 -122.5zM405 312q-4 -19 -13.5 -39t-21.5 -37.5t-31.5 -37t-37.5 -29.5 q19 -10 21 -11q12 -5 26 -5q13 0 31 13t30.5 30.5t20 36t7.5 34.5q0 14 -9 25t-23 20z" />
<glyph unicode="T" horiz-adv-x="559" d="M45 398q33 -93 76 -187q50 -110 94 -181q12 -20 28 -25t46 -5l138 12q51 0 83 41q-18 0 -37 -0.5t-40 -0.5l-98 -6q-30 0 -44 6l-210 429q-15 32 -29.5 93t-14.5 95l-16 240l31 3q16 0 20 -15l44 -180l188 -16l-27 182q0 20 -13 20l-240 20q-16 -7 -20 -22t-4 -51 l16 -281q7 -73 8 -84q7 -49 21 -87zM94 528l223 -410l179 3q21 0 17 -20v-22l16 -8l3 26q0 14 -1.5 23t-8.5 19l-217 381q-20 36 -20 81q0 21 5 43t14 45l-190 16q-16 -28 -25.5 -57.5t-9.5 -57.5q0 -33 15 -62zM437 259l-174 -3l-127 232l172 -2zM171 446q8 -6 15 -6 q14 0 17 10q-16 0 -26 6t-10 19q-4 -1 -4 -11q0 -11 8 -18zM200 391q8 -6 15 -6q12 0 17 10q-17 0 -24 4q-12 10 -12 21q-4 -4 -4 -12q0 -10 8 -17zM230 334q8 -6 15 -6q13 0 18 10l-3 2q-11 -5 -22 2.5t-11 20.5l-3 1q-2 -4 -2 -11q0 -11 8 -19zM260 279q8 -6 15 -6 q13 0 16 10l-2 2q-3 -1 -10 -1q-6 0 -12 3q-10 7 -12 21q-3 -3 -3 -11q0 -11 8 -18zM228 444q8 -6 15 -6q15 0 17 9l-2 2q-14 -4 -22 3q-3 2 -7 7.5t-5 12.5l-3 1q-2 -4 -2 -10q0 -13 9 -19zM257 388q6 -6 16 -6q13 0 16 10q-17 0 -25 4q-11 9 -11 21q-4 -4 -4 -12 q0 -10 8 -17zM288 332q6 -6 15 -6q14 0 16 9q-17 0 -23 5q-11 6 -13 19l-2 2q-2 -4 -2 -9q0 -14 9 -20zM317 275q-9 8 -9 20q0 8 3 11q4 -15 12 -20.5t15 -5.5q3 0 9 2l2 -2q-4 -10 -18 -10q-8 0 -14 5zM281 444q8 -6 15 -6q15 0 17 9l-2 2q-13 -3 -23.5 3.5t-10.5 19.5 q-2 2 -3 1q-2 -2 -2 -10q0 -13 9 -19zM310 388q8 -6 15 -6q13 0 16 10q-15 0 -24.5 5.5t-11.5 19.5q-3 -3 -3 -11q0 -11 8 -18zM340 332q-9 8 -9 20q0 5 2 9l3 -1q2 -15 12 -20q9 -7 22 -3l3 -2q-5 -9 -18 -9q-7 0 -15 6zM370 276q8 -6 15 -6q13 0 16 10q-15 -1 -24.5 5.5 t-11.5 19.5q-4 -4 -4 -10q0 -10 9 -19zM311 212l8 -10l121 5l-7 9zM314 233l10 -10l89 1l-7 11zM340 194l92 2l6 -10l-89 -3zM175 828l28 -1q9 0 11 -10l2 -14q0 -8 -8 -8h-25q-6 0 -11 9l-5 16q0 8 8 8zM201 570q-25 0 -43.5 7t-21.5 18t11.5 18t39.5 7q24 0 43.5 -7 t21.5 -18q2 -10 -13 -17.5t-38 -7.5z" />
<glyph unicode="U" horiz-adv-x="427" d="M150 787v40h-22v244h-18v-244h-23v-40h-28q-7 0 -15 -11t-8 -18q0 -56 -4 -168t-4 -169q0 -72 2 -139q6 -202 6 -230q0 -4 9.5 -13.5t13.5 -9.5h285l41 16q4 2 10 9.5t6 10.5q0 59 3 179t3 181q0 57 -3 169t-3 166q0 10 -10 18.5t-17 8.5h-224zM367 766q6 0 12 -8t6 -14 q0 -66 2.5 -178.5t2.5 -135.5q0 -82 -1 -133q-4 -203 -4 -222q0 -8 -7 -15t-11 -7h-291q-6 0 -14 9.5t-8 15.5q0 59 -2 128q-5 172 -5 216q0 40 5 201q2 64 2 120q0 8 7.5 15.5t11.5 7.5h294zM28 732q-13 -68 -20 -155.5t-7 -166.5q0 -64 3 -193t3 -192q0 -5 4 -11 q9 -14 17 -14h219l74 21h-272q-5 0 -13 9.5t-9 14.5q0 86 -1 140q-4 214 -4 236q0 52 3 156t3 155zM327 321v31q0 14 -21 14q-22 0 -22 -14v-31q0 -14 22 -14q21 0 21 14zM327 435v30q0 4 -3 7q-7 6 -18 6q-22 0 -22 -13v-30q0 -15 22 -15q21 0 21 15zM327 546v31 q0 5 -4.5 9t-16.5 4q-22 0 -22 -13v-31q0 -14 22 -14q21 0 21 14zM245 321v31q0 14 -20 14q-21 0 -21 -14v-31q0 -14 21 -14q20 0 20 14zM245 435v30q0 7 -7 10t-13 3q-21 0 -21 -13v-30q0 -15 21 -15q20 0 20 15zM245 546v31q0 8 -7.5 10.5t-12.5 2.5q-21 0 -21 -13v-31 q0 -14 21 -14q20 0 20 14zM166 321v31q0 14 -21 14t-21 -14v-31q0 -14 21 -14t21 14zM166 435v30q0 4 -3 7q-6 6 -18 6q-21 0 -21 -13v-30q0 -15 21 -15t21 15zM166 546v31q0 8 -7.5 10.5t-13.5 2.5q-21 0 -21 -13v-31q0 -14 21 -14t21 14zM333 643q9 0 16.5 7t7.5 16v40 q0 24 -24 24h-222q-24 0 -24 -24v-40q0 -23 24 -23h222zM333 116q24 0 24 23v40q0 24 -24 24h-222q-24 0 -24 -24v-40q0 -23 24 -23h222zM357 238v20h-270v-20h270zM112 191h218q15 0 15 -15v-36q0 -14 -15 -14h-218q-14 0 -14 14v36q0 15 14 15z" />
<glyph unicode="V" horiz-adv-x="1032" d="M35 101l-35 79l76 127q11 26 36 99q34 96 39 111q20 56 40 100q37 86 77 158q50 90 94 142q26 3 45 3q30 0 56 -9q19 -15 37 -37q22 -27 29 -47l24 45l390 -9l40 -74l-205 -590q-11 -30 -28 -67q-4 -8 -56 -107q-9 -16 -16 -19.5t-27 -3.5zM184 289l-86 11q24 97 57 192 t76 186q31 66 64.5 123t70.5 106q10 1 17.5 1.5t11.5 0.5q22 0 40 -6q-30 -56 -65 -124t-61 -127q-43 -95 -73 -180q-34 -97 -52 -183zM644 93l-629 86l66 110l13 -75l95 -15q12 -1 21 -1.5t15 -0.5q21 0 36.5 5.5t27.5 20.5q19 25 34 61q10 24 20 63l-61 109q48 128 98 235 l108 1l-38 -93l389 -20l-111 -314q-23 -64 -40 -100q-20 -43 -44 -72zM575 483l39 -2l17 39l-39 2zM550 421l40 -2l16 38l-39 3zM525 359l39 -2l17 39l-40 2zM500 298l39 -3l17 39l-39 2zM461 162l39 -4l17 38l-39 3zM404 304l39 -3l16 39l-39 2zM347 171l39 -5l16 39l-39 4 zM640 480l40 -3l16 40l-39 1zM615 418l40 -2l16 38l-39 2zM589 356l40 -2l16 38l-39 2zM564 294l40 -3l17 39l-39 3zM704 476l40 -3l16 39l-40 2zM680 414l39 -3l16 39l-38 3zM654 351l39 -2l16 39l-38 2zM629 289l40 -2l16 39l-39 2zM572 149l39 -5l17 39l-40 4zM490 618 l9 24l355 -16l-8 -24zM505 657l8 23l355 -13l-8 -25zM520 696l9 23l354 -13l-8 -23zM535 736l8 23l354 -13l-7 -23zM547 777l9 23l353 -13l-7 -24zM561 814l8 24l355 -11l-9 -24z" />
<glyph unicode="W" horiz-adv-x="994" d="M436 75l-211 3q-3 0 -15 10q-4 3 -12 11v30v25v22v19v16v14v12q0 18 -0.5 37t-0.5 39v12q0 54 -13 150q-18 134 -19.5 152.5t-10.5 51.5t-17 53l-62 146q-5 12 1.5 18.5t21.5 4.5l191 -20q5 -1 13 -8l8 -8q36 -59 55 -98q32 -66 42 -122.5t22 -120.5q26 -133 26 -204 q0 -38 2 -123t2 -105q0 -3 -10 -10t-13 -7zM763 717q6 0 8 -12l15 -125q2 -16 -8 -16l-344 17l-11 69l315 -21l12 71l-346 19l-6 25zM769 734l-379 28l-32 57l426 -34q5 -1 10 -6t6 -10q7 -30 13.5 -95t14.5 -138q0 -17 1.5 -26.5t7.5 -28.5l82 -414q2 -10 -7.5 -15.5 t-22.5 -5.5l-407 5q-12 -7 -23 -10t-21 -3l-234 7q-19 0 -30 22q-6 12 -13 40l-69 401q-4 24 -4 56v41q0 32 -3.5 55t-15.5 44l-49 85l-17 -89l-3 -28l103 -537q6 -29 18 -57q9 -21 25 -46q11 -16 33.5 -22t49.5 -6l672 -4q17 0 31 25t11 45l-83 412l-8 48q-10 79 -14 118 q-9 76 -17 120q-2 12 -12.5 24t-19.5 12l-438 33l-29 41q-5 5 -14.5 12t-18.5 9l-189 22q-12 1 -22 -3t-16 -12t-14.5 -33t-8.5 -40v-6q2 -4 2 -5l71 -130q3 -7 5 -19t4 -31l41 -336q4 -35 8.5 -102.5t4.5 -102.5q0 -18 8 -29t22 -11l231 -8q20 0 29.5 13t9.5 32 q0 43 -1.5 101t-2.5 124q0 66 -10 124q-15 71 -23 117l355 -19q7 0 11.5 8t2.5 16l-21 152q0 13 -17 13zM611 251l-60 3l11 -42l58 -1zM633 173l-59 3l11 -41l57 -2zM596 330l-58 3l11 -42l57 -1zM581 412l-59 3l10 -42l57 -1zM706 248l-59 1l10 -41l58 -1zM729 170l-59 2 l11 -41l57 -2zM693 326l-60 3l12 -42l57 -2zM676 409l-58 1l10 -40l57 -2zM800 243l-58 3l11 -42l56 -2zM823 166l-59 3l10 -43l58 -1zM787 322l-59 3l11 -42l57 -1zM770 405l-58 2l10 -41l58 -2zM753 486l-59 2l11 -41l57 -2z" />
<glyph unicode="X" horiz-adv-x="1580" d="M75 432q-16 -5 -25 -12.5t-12 -25.5l-38 -259q63 -6 129 -6q95 0 185 9t200 27q46 7 188 33q175 32 386.5 108.5t384.5 166.5q19 10 19 18q0 6 -4 15l-112 227q-6 13 -18 17q-8 1 -16 3q4 6 6.5 16.5t-0.5 15.5l-37 79q-2 5 -7 8.5t-11 5.5q-68 24 -164 34.5t-197 10.5 q-61 0 -115.5 -5.5t-123.5 -18.5q-167 -30 -321 -106q-149 -73 -281 -186q-15 -13 -17 -28l-21 -105q-3 -16 5 -25q11 -10 17 -17zM1267 860q11 -5 16 -8.5t8 -12.5l27 -60q1 -5 3 -9q0 -8 -14 -8q-7 0 -11 1q-73 12 -145 18t-157 6q-110 0 -201.5 -10.5t-185 -38.5 t-184.5 -74q-73 -37 -163 -96l-166 -112q-5 -3 -8 -3q-5 0 -8 4.5t-2 9.5l18 101l16 28q73 57 152 106q86 53 164 86q129 54 274 81.5t289 27.5q61 0 147 -10t131 -27zM1009 720l40 -105q-120 -50 -327 -100q-75 -19 -126 -31q-82 -19 -141 -28.5t-116 -9.5l15 108 q140 18 332 70q91 23 173 48q106 34 150 48zM1250 402l-88 230q52 17 121 49q48 23 71 34l107 -214q-41 -23 -104 -52q-54 -25 -107 -47zM391 516v-24q84 10 196 33t207 49q109 30 194 62l-10 24q-151 -60 -390 -110q-42 -9 -97 -18.5t-100 -15.5zM1014 312l-67 244 q51 15 95.5 31.5t94.5 38.5l90 -229q-52 -26 -108 -48q-48 -19 -105 -37zM27 158l35 244q107 0 219.5 12.5t244.5 36.5q88 15 179 36.5t216 56.5l64 -241q-110 -31 -212 -54.5t-208 -40.5q-132 -23 -266 -36.5t-272 -13.5zM19 89l100 -89h1198l188 193l-6 244 q-150 -83 -327 -152q-226 -85 -455 -131q-179 -36 -348 -52q-71 -7 -171 -10t-179 -3zM208 190q47 0 47 25q0 12 -13 19t-34 7t-34 -7t-13 -19q0 -11 13 -18t34 -7zM355 206q19 0 32 9t13 20q0 10 -14 16t-34 6q-21 -2 -33.5 -10t-12.5 -20q0 -11 13.5 -16t35.5 -5zM516 226 q20 4 32.5 13.5t10.5 20.5q-4 18 -36 18q-5 0 -19.5 -2.5t-27.5 -11.5t-11 -20q5 -19 39 -19q8 0 12 1zM672 254q18 5 29.5 16t8.5 21q-3 15 -33 15q-13 0 -25 -3.5t-23.5 -14.5t-8.5 -21q3 -15 34 -15q12 0 18 2zM353 278q20 0 32.5 8t10.5 20q0 10 -12.5 15t-33.5 5 q-18 0 -32 -9t-12 -19q0 -9 11 -15t27 -6q6 1 9 1zM508 297q19 3 30.5 12t9.5 20q0 18 -33 18q-5 0 -19 -2.5t-26 -11.5t-10 -19q0 -8 10 -13t25 -5q9 0 13 1zM656 325q18 4 29 14t9 21q-3 14 -32 14q-6 0 -18 -2q-19 -6 -29.5 -15.5t-7.5 -20.5q5 -14 29 -14q9 0 20 3z M214 334q17 0 30 7t13 17t-12.5 17.5t-30.5 7.5q-19 0 -31.5 -7.5t-12.5 -17.5t12.5 -17t31.5 -7zM349 350q17 0 29 9t12 19q0 9 -12.5 14t-32.5 5q-18 -2 -30 -9t-12 -18q0 -8 14.5 -14t31.5 -6zM498 370q17 3 28 12t10 19q-1 7 -12 12t-25 5q-6 -1 -9 -1 q-17 -3 -28.5 -12.5t-11.5 -18.5q3 -17 36 -17q8 1 12 1zM639 395q18 5 28.5 15.5t7.5 19.5q-3 14 -28 14q-9 0 -23.5 -3.5t-24.5 -13.5t-8 -19q3 -15 31 -15q5 0 17 2z" />
<glyph unicode="Y" horiz-adv-x="888" d="M195 716h119q4 0 7.5 -4t1.5 -8q-26 -63 -39 -152.5t-13 -186.5q0 -91 9 -165q2 -8 -0.5 -15t-9.5 -7h-139q-4 0 -8.5 6t-4.5 14q0 155 13.5 272.5t51.5 233.5q7 12 12 12zM477 690l-2 -48h68v48h-66zM475 631l-2 -50h70v50h-68zM473 564l-3 -56h75v56h-72zM470 493 l-4 -64h79l-1 64h-74zM558 690v-48h65l-2 48h-63zM558 631v-50h70l-3 50h-67zM558 564l2 -56h72l-3 56h-71zM632 690l4 -48h67l-6 48h-65zM638 631l3 -50h70l-6 50h-67zM641 564l5 -56h76l-9 56h-72zM647 493l3 -64h83l-11 64h-75zM461 346l-2 -92h296l-15 92h-279zM203 875 h468l10 -76h-489zM187 891l-16 -109h528l-16 109h-496zM31 92h788l-19 -73h-748zM0 129q0 -20 3 -28l33 -101h780l27 103q3 8 3 21l-120 799l-589 -1zM152 906h559l114 -774h-798zM300 164q9 0 16 5t7 13v61q0 8 -7.5 17t-12.5 17q-4 39 -4 96q0 67 6 134.5t16 113.5h10 l17 86l-18 21h-142q-11 0 -15 -14q-33 -92 -53.5 -201.5t-20.5 -211.5q0 -56 8 -114q0 -8 3.5 -15.5t8.5 -7.5h181z" />
<glyph unicode="Z" horiz-adv-x="1228" d="M124 863q-28 0 -28 -24v-752q0 -12 7 -20t21 -8h194q14 0 22 8t8 20v752q0 24 -30 24h-194zM141 833h162q24 0 24 -24v-694q0 -26 -24 -26h-162q-12 0 -18 7t-6 19v694q0 24 24 24zM71 895h1027q18 0 31 -13t13 -33v-781q0 -18 -12.5 -31.5t-31.5 -13.5h-1027 q-19 0 -32 13t-13 32v781q0 20 13 33t32 13zM48 923q-13 0 -30.5 -18.5t-17.5 -31.5v-824q0 -15 17 -32t31 -17h1069q14 0 33.5 17.5t19.5 31.5v824q0 14 -19 32t-34 18h-1069zM1021 841h-574v-27h574v27zM1021 734h-574v-29h574v29zM1021 681h-574v-28h574v28zM1021 788 h-574v-29h574v29zM438 482h197v-236h-197v236zM691 281h85v-41h-85v41zM691 422h85v-39h-85v39zM691 351h85v-39h-85v39zM691 494h85v-40h-85v40zM958 281h86v-41h-86v41zM958 422h86v-39h-86v39zM958 351h86v-39h-86v39zM958 494h86v-40h-86v40zM821 281h86v-41h-86v41z M821 422h86v-39h-86v39zM821 351h86v-39h-86v39zM821 494h86v-40h-86v40zM435 602q-16 0 -27 -11t-11 -27v-386q0 -15 11 -26t27 -11h628q15 0 26 11t11 26v386q0 15 -10.5 26.5t-26.5 11.5h-628z" />
<glyph unicode="a" horiz-adv-x="1696" d="M197 0h1231q68 0 68 61v202q0 37 -8.5 55t-43.5 49l-311 292v68h-147v-63h-362l-6 63h-130v-63l-301 -297q-28 -26 -40 -48.5t-12 -55.5v-202q0 -61 62 -61zM809 361q-137 0 -234.5 34t-97.5 82q0 46 98 80t234 34q134 0 232 -33.5t98 -80.5q0 -48 -97.5 -82t-232.5 -34z M0 623v-43q0 -11 12 -21t23 -10h271q42 0 42 31v43h-348zM1616 623h-343v-43q0 -14 11.5 -22.5t24.5 -8.5h277q11 0 20.5 9.5t9.5 21.5v43zM809 773q104 0 192 -4t166 -16.5t110 -37.5q-4 -19 -4 -61v-12h343q-19 109 -77 165q-53 51 -163 76t-212 32.5t-355 7.5 q-172 0 -264.5 -4.5t-174.5 -15.5q-36 -5 -135 -22t-156 -71q-60 -58 -79 -168h348v23q0 35 -5 50q31 24 106.5 36.5t174 17t185.5 4.5z" />
<glyph unicode="b" horiz-adv-x="1499" d="M226 0h960v180l-122 328l-104 138v72q35 0 67 -20q39 -25 51 -69h350q0 95 -39 149t-131 94q-49 24 -141 35t-189.5 13.5t-213.5 2.5q-146 0 -231.5 -2.5t-156 -10.5t-127.5 -27q-129 -45 -172 -117q-27 -46 -27 -137h350q4 42 40.5 65.5t76.5 23.5v-72l-103 -119 l-138 -347v-180zM528 734q72 15 168 15t188 -15l-6 -68h-339zM1078 610q0 -46 3.5 -64.5t43.5 -18.5h257q31 0 40 22q6 15 6 61h-350zM0 610q0 -47 6 -61q10 -22 45 -22h242q31 0 43 21q9 16 14 62h-350zM704 198q-85 0 -145 57t-60 134q0 82 59.5 138.5t145.5 56.5 q84 0 145 -57t61 -138q0 -76 -61.5 -133.5t-144.5 -57.5z" />
<glyph unicode="c" horiz-adv-x="1509" d="M44 551h308q12 36 24 73q18 45 44 67q67 18 145 27.5t163 9.5q72 0 141.5 -9t129.5 -28q27 -30 43 -59q21 -37 30 -80l311 -1q23 6 33.5 20t10.5 34q0 23 -16 55q-23 47 -63.5 92t-78.5 69q-81 49 -233.5 75.5t-322.5 26.5q-187 0 -345 -27t-239 -76q-35 -22 -68 -67 q-37 -50 -49 -97q-6 -21 -6 -39q0 -23 8.5 -39t29.5 -27zM235 235q-5 -23 -5 -51q0 -36 5 -66t16 -54q17 -36 40.5 -50t64.5 -14h725q32 0 62 17.5t43 39t18 60t5 116.5q0 21 -12 46q-4 8 -50 82q-20 31 -40 54q-33 38 -53 40q-33 0 -62 -29q-20 -20 -46 -61 q-36 -59 -88 -84.5t-128 -25.5q-87 0 -132 20q-52 23 -103 91q-33 43 -42 53q-32 34 -55 34q-24 0 -56 -36q-13 -15 -42 -56q-24 -38 -37 -60q-22 -39 -28 -66zM718 323q84 0 142 52t58 126t-58 126t-142 52q-83 0 -141 -52t-58 -126t58 -126t141 -52z" />
<glyph unicode="d" horiz-adv-x="1282" d="M99 529q-29 14 -29 49q0 14 5 32q11 37 36.5 72t52.5 51q60 36 182.5 57.5t258.5 21.5q130 0 244.5 -20.5t175.5 -58.5q31 -16 62 -50.5t48 -70.5q11 -22 11 -41q0 -15 -7.5 -26t-25.5 -16l-237 1q-5 32 -21 61q-12 22 -32 44q-98 30 -206 30q-60 0 -121 -8t-112 -22 q-15 -19 -28.5 -49t-22.5 -57h-234zM243 290q5 23 28 61q9 14 22 35q27 38 30 42q24 28 44 28t50 -36q12 -16 25 -31q39 -52 75 -68.5t103 -16.5q56 0 95 20t67 65q21 32 34 45q22 22 47 22q12 0 31 -18.5t39 -51.5q22 -31 32 -48q16 -28 16 -49v-15q0 -41 -3 -71t-12 -47 q-13 -19 -34.5 -32t-47.5 -13l-548 1q-31 0 -49 10.5t-30 38.5q-8 18 -12 44.5t-4 54.5v16q2 10 2 14zM610 357q-63 0 -107 39t-44 96q0 56 44 95t107 39q62 0 106 -39t44 -95t-43.5 -95.5t-106.5 -39.5zM275 912q-52 0 -98 -22t-81 -58t-57.5 -84t-28.5 -96t-8 -96.5 t-2 -93.5q0 -38 2 -69q7 -109 7 -118q6 -54 28 -100.5t58 -83t82 -59t98 -22.5q53 0 125 -3q167 -7 210 -7q57 0 169 5t166 5q53 0 97.5 21.5t83.5 60.5q73 72 84 183q6 63 8.5 102t2.5 85q0 51 -2 95t-9 95t-28 96.5t-57.5 83t-78.5 57.5q-48 23 -101 23q-51 0 -174.5 5.5 t-160.5 5.5q-52 0 -209 -7q-90 -4 -126 -4z" />
<glyph unicode="e" horiz-adv-x="1876" d="M287 869l-277 -248l-10 -270l105 -102l354 304v224h860l-1 -227l345 -301l124 107l-10 259l-256 257q-158 25 -307.5 38t-285.5 13q-153 0 -307.5 -13t-333.5 -41zM1258 707h-745v-186l-381 -332v-189h1508l-2 188l-381 333zM891 201q-130 0 -222 63t-92 152t91.5 151.5 t222.5 62.5q129 0 219.5 -62t90.5 -152q0 -89 -91 -152t-219 -63z" />
<glyph unicode="f" horiz-adv-x="1507" d="M718 360q-69 0 -116.5 40t-47.5 100q0 58 48 99t116 41q67 0 115 -41t48 -99t-48 -99t-115 -41zM281 233q2 17 17 46q10 20 31 54l28 44q23 29 47 29q19 0 49 -43q19 -30 38 -59q46 -51 105 -71q51 -17 133 -17q71 0 127 21t88 67q40 59 61 78q27 24 50 24q16 0 36 -29 q21 -35 26 -44q23 -35 31 -53q13 -27 13 -49v-28t1 -31q0 -34 -2.5 -54.5t-11.5 -34.5q-14 -19 -40 -33t-56 -14h-665q-36 0 -58 11.5t-36 40.5q-7 13 -11 42.5t-4 54.5q0 31 3 48zM77 588q-27 14 -27 44q0 12 1.5 19.5t7.5 24.5q10 35 49 73q32 31 66 50q72 40 221.5 62.5 t316.5 22.5q163 0 302 -21t214 -63q37 -20 69 -50q37 -35 57 -73q11 -21 15 -30q8 -18 8 -29q0 -22 -29 -30l-247 1q-6 33 -34 75q-18 26 -46 58q-62 21 -137.5 32.5t-157.5 11.5q-83 0 -178.5 -13t-158.5 -31q-19 -23 -40 -66q-13 -27 -28 -69zM44 551h308q12 39 26 71 q18 39 41 69q64 18 144.5 27.5t163.5 9.5q72 0 140.5 -9t130.5 -28q27 -30 43 -59q21 -37 29 -80h311q22 6 32.5 19.5t10.5 33.5q0 13 -4 27t-11 28q-24 48 -63.5 92.5t-78.5 67.5q-81 49 -232.5 76t-323.5 27q-182 0 -343 -27.5t-240 -77.5q-34 -20 -67 -65 q-36 -49 -50 -97q-3 -13 -4 -19t-1 -18q0 -47 38 -68zM234 235q-3 -20 -3 -46q0 -39 4.5 -69.5t15.5 -55.5q17 -36 40.5 -50t64.5 -14h724q32 0 61.5 17.5t44.5 41.5q12 20 16.5 62.5t4.5 84.5v27q0 22 -12 48q-5 11 -50 81q-24 35 -40 54q-33 39 -53 39q-33 0 -62 -28 q-20 -19 -46 -62q-36 -59 -87 -84.5t-127 -25.5q-86 0 -134.5 22t-100.5 89q-30 39 -43 53q-33 35 -54 35q-31 0 -70 -51q-14 -21 -28 -41q-32 -49 -38 -60q-22 -38 -28 -67zM718 324q84 0 141.5 51.5t57.5 126.5q0 73 -58 125t-141 52q-82 0 -141 -52t-59 -125 q0 -75 58.5 -126.5t141.5 -51.5z" />
<glyph unicode="g" horiz-adv-x="1436" d="M107 818q-31 -16 -50.5 -43.5t-31.5 -64.5q-5 -17 -10 -46t-5 -51q0 -31 10 -54q11 -20 27 -27t40 -7q22 1 33 1q73 0 111 4q63 7 107 27q9 37 20 66q15 41 33 61q23 23 72 37q30 8 70.5 13.5t92 7.5t102.5 2q46 0 87.5 -7.5t77.5 -19.5q44 -17 67.5 -42t42.5 -70 q16 -41 28 -54q18 -21 54 -24q47 -6 84 -10.5t65 -4.5t51.5 5t51.5 41t28 65q0 32 -18.5 84t-39 77.5t-73.5 48.5q-42 18 -86 28q-99 26 -188 41q-107 18 -197 18h-16h-14h-12h-36.5t-36.5 1h-11q-63 0 -145 -10q-52 -6 -139 -22q-76 -12 -126 -25q-72 -19 -120 -46z M1217 773q34 -17 45 -41q8 -31 13.5 -46.5t11.5 -44t6 -50.5q0 -23 -5 -34q-15 0 -30.5 -0.5t-32.5 -0.5q-52 0 -84 4t-53.5 15.5t-34.5 30.5q-7 10 -21 39q-35 69 -106 97q-42 16 -88 22.5t-99 6.5q-69 0 -118 -1.5t-105.5 -7t-103.5 -21.5q-65 -23 -100 -65 q-10 -14 -16 -35q-8 -37 -15 -73q-35 -4 -79.5 -8t-74.5 -4q-50 0 -77 10q0 33 9 71.5t13 54.5q10 48 47 72q15 10 82 35q94 33 193 47t211 14q105 0 192 -3.5t169 -14.5q168 -24 251 -69zM484 495q7 -76 74 -120q60 -40 142 -40q68 0 124 48.5t56 116.5q0 51 -19.5 88.5 t-60.5 63.5q-53 33 -119 33q-38 0 -87 -12t-80 -56t-31 -103q0 -13 1 -19zM774 414q-14 -18 -38.5 -27t-52.5 -9q-42 0 -81 18t-60 50q-16 27 -16 65q0 22 4.5 38t16.5 32q16 21 61 34t81 13q53 0 84 -41q28 -37 28 -89q0 -51 -27 -84zM195 43q13 -26 43 -36q22 -7 58 -7 h775q24 3 36.5 12.5t22.5 28.5q19 37 29 120q1 11 7 73q-68 99 -135 199q-20 20 -56 20q-24 0 -38 -12q-8 -9 -16 -25q-4 -7 -14 -30q-33 -67 -95 -104.5t-133 -37.5q-83 0 -151 35q-76 39 -112 112q-8 17 -15 34q-15 26 -52 26q-12 0 -22.5 -4.5t-23.5 -18.5 q-38 -42 -94 -134q-26 -43 -51 -85q9 -53 14 -83q10 -53 23 -83zM528 178q21 -7 54.5 -11t58.5 -4q41 0 73 5q55 8 105 43q38 27 76 72q21 25 38 50q9 14 37 58q37 -29 68 -78q13 -22 27 -44q8 -21 12.5 -49.5t4.5 -61.5q0 -49 -10 -80q-11 -23 -23.5 -33t-41.5 -14h-695 q-31 3 -48.5 11t-28.5 23t-18 44.5t-7 58.5q0 31 7 51.5t20 42.5q8 15 28 42q26 36 31 43q14 19 34 42l28 -68q20 -42 46 -65q58 -57 124 -78z" />
<glyph unicode="h" d="M122 849q-29 -11 -46 -21q-25 -14 -39 -34q-7 -11 -16 -41t-9 -48q0 -17 7 -24l227 115q4 12 13 21.5t19 10.5v-191q-22 -19 -49 -47q-33 -34 -42 -52q-10 -38 -14.5 -160.5t-4.5 -219.5q0 -33 8.5 -61.5t27.5 -45t46 -26.5q20 -7 53.5 -12t79.5 -9t85 -4q31 0 52 1.5 t54 6t57.5 9.5t46.5 15q29 13 44 53q9 24 16 69q13 100 13 217q0 85 -9 165l-98 94l-1 195q10 -5 20 -14q7 -6 18 -20l239 -63q0 61 -75 103q-47 27 -131 49q-145 37 -301 37q-80 0 -183 -31q-35 -11 -108 -37zM52 621q9 -4 21 -4q15 1 21 1q14 -3 21 -3q5 0 13.5 2.5 t24.5 10.5l32 16q20 12 29 17q15 9 21.5 16t9 15t4 12t11 12.5t9.5 15.5q0 9 -4 18t-13 27l-220 -118q0 -26 20 -38zM684 766l-17 -89l223 -58l26 87zM586 642h-254l1 15h80v44h100v-44h73v-15zM200 636l-8 -58l68 64v25zM735 568l-9 64l-64 24v-20zM459 136q-87 0 -149 62 t-62 149t61.5 148.5t149.5 61.5q86 0 148 -62t62 -148q0 -87 -62 -149t-148 -62zM528 201q42 20 66.5 58.5t24.5 87.5q0 65 -47 113t-113 48q-65 0 -113 -48t-48 -113q0 -67 47 -114t114 -47q23 0 44 6l-28 71h-16q-35 0 -60 24t-25 60q0 34 25 59t60 25t59.5 -24.5 t24.5 -59.5q0 -51 -44 -74zM454 195q-24 0 -24 24q0 23 24 23q9 0 15.5 -6.5t6.5 -16.5q0 -8 -7 -16t-15 -8zM399 212q-23 0 -23 24q0 8 7 15t16 7q23 0 23 -22q0 -24 -23 -24zM356 252q-9 0 -16 7t-7 16t7 16.5t16 7.5q23 0 23 -24q0 -10 -6.5 -16.5t-16.5 -6.5zM335 305 q-12 0 -17.5 8t-5.5 15q0 24 23 24q9 0 16 -7t7 -17q0 -9 -7 -16t-16 -7zM341 363q-23 0 -23 23t23 23q12 0 19 -10q4 -6 4 -13q0 -10 -6.5 -16.5t-16.5 -6.5zM374 409q-12 0 -17.5 8t-5.5 15q0 25 23 25q22 0 22 -25q0 -23 -22 -23zM422 442q-23 0 -23 22q0 10 6.5 16.5 t16.5 6.5q9 0 15.5 -6.5t6.5 -16.5q0 -22 -22 -22zM479 444q-23 0 -23 24q0 10 6.5 16.5t16.5 6.5q9 0 16 -7t7 -16t-7 -16.5t-16 -7.5zM535 426q-9 0 -16.5 6.5t-7.5 15.5t7 16t17 7q12 0 19 -10q4 -6 4 -13q0 -10 -6 -16t-17 -6zM574 377q-10 0 -16.5 6.5t-6.5 16.5 t6.5 17t16.5 7q9 0 16 -7t7 -17q0 -12 -10 -19q-6 -4 -13 -4zM333 730v90h251v-90h-251z" />
<glyph unicode="i" horiz-adv-x="1348" d="M603 537q-100 -11 -167 -68t-67 -133q0 -85 79.5 -144.5t192.5 -59.5t193.5 59.5t80.5 144.5q0 75 -68 132.5t-168 68.5q-16 5 -16 24q0 11 6 23t20.5 15.5t41.5 6.5q34 0 68 17q40 20 40 50l-1 65q53 0 95 -32.5t46 -71.5q62 -15 153 -15q83 0 149 12q0 59 -18 105 q-21 55 -62 72q-74 34 -156 50t-211 16q0 18 -4.5 31t-17.5 15q-10 2 -15.5 -14t-5.5 -34q-4 -3 -52 -6t-98 -3q-67 0 -105.5 2.5t-42.5 6.5q0 18 -5.5 34t-17.5 14t-17.5 -15.5t-3.5 -30.5q-128 0 -210.5 -16t-156.5 -50q-40 -17 -60 -68t-20 -109q66 -12 149 -12 q90 0 153 15q4 38 46 71t95 33l-1 -65q0 -30 39 -50q33 -17 69 -17q16 -2 33 -4q22 -5 27 -16q8 -13 8 -26q0 -16 -17 -23zM791 738v-36q0 -33 -22 -42q-14 -6 -58 -6q-16 0 -45.5 -1t-43.5 -1h-17h-13q-10 2 -15 2q-46 0 -61 5q-27 9 -27 40v39h302zM44 537q15 -6 46.5 -9 t61.5 -3q36 0 62.5 2t45 8t27.5 21.5t13 46.5q-38 -4 -81.5 -7t-78.5 -3q-54 0 -134 8q0 -28 8 -42.5t30 -21.5zM1238 537q22 7 30.5 22t8.5 42q-39 -4 -69 -6t-65 -2q-60 0 -97 3q-42 5 -63 7q7 -57 39.5 -67.5t107.5 -10.5q41 0 65.5 2.5t42.5 9.5zM305 409l-110 -103 q-20 -20 -32 -36q-18 -24 -18 -42v-159q0 -23 21 -46t42 -23h871q23 0 47.5 22.5t24.5 46.5v165q0 16 -12 32q-5 7 -42 40l-123 103q-19 20 -34 31q-22 16 -46 21q21 -20 36 -54.5t15 -73.5q0 -31 -10.5 -61.5t-33.5 -59.5q-41 -52 -106.5 -81t-155.5 -29q-91 0 -152 27 t-109 86q-20 25 -29.5 53.5t-9.5 56.5q0 44 19 83t42 54q-32 0 -64 -25q-10 -7 -31 -28zM752 416q-15 0 -27 11t-12 28q0 16 11.5 27.5t27.5 11.5q17 0 28 -11t11 -28t-11 -28t-28 -11zM650 435q-17 0 -28 11t-11 28t11 28t28 11q16 0 27 -11t11 -28t-10 -28t-28 -11z M553 422q-16 0 -27 11t-11 28q0 16 11 27t27 11q17 0 28 -11t11 -27q0 -17 -11 -28t-28 -11zM465 370q-18 0 -29 11t-11 28t11 28t29 11q15 0 27 -11t12 -28q0 -16 -11.5 -27.5t-27.5 -11.5zM439 273q-17 0 -28 11t-11 29q0 16 11 27t28 11q15 0 27 -11t12 -27 q0 -17 -11.5 -28.5t-27.5 -11.5zM504 194q-17 0 -29 11t-12 29q0 16 12.5 27.5t28.5 11.5q15 0 26.5 -11.5t11.5 -27.5t-11 -28t-27 -12zM603 162q-16 0 -27.5 11.5t-11.5 28.5q0 15 11.5 26.5t27.5 11.5q15 0 27 -11t12 -27q0 -17 -11.5 -28.5t-27.5 -11.5zM710 169 q-17 0 -28.5 11.5t-11.5 27.5q0 17 11.5 28.5t28.5 11.5q16 0 27 -11t11 -29q0 -15 -11 -27t-27 -12zM803 215q-17 0 -28.5 11.5t-11.5 27.5q0 17 11.5 28.5t28.5 11.5q16 0 27.5 -11.5t11.5 -28.5q0 -16 -11.5 -27.5t-27.5 -11.5z" />
<glyph unicode="j" horiz-adv-x="1034" d="M721 742q0 -41 -42 -41h-147q-8 15 -22 23t-31 8q-34 0 -50 -31h-127q-22 0 -30.5 9.5t-8.5 28.5v100q7 -9 10 -12q12 -13 31 -13q7 0 11 1q19 0 55 4q82 9 115 9q24 0 114 -13q42 -6 65 -6q50 0 57 34v-101zM377 352q-48 -10 -73 -43q-21 -28 -21 -65l-137 -70l-61 -109 q-5 0 -10 -9.5t-5 -19.5q0 -6 1 -9h-18v-27h852v32h-24q5 6 -2 22t-16 16l-66 104l-118 70q3 33 -17 61q-25 35 -78 47l-9 61l-53 67q13 8 13 16q-5 13 -9 25t-4 23q9 5 9 20q0 11 -9 14v66q4 3 10 20h151q37 0 54 20.5t17 50.5v104h52l-9 -57q-15 0 -15 -24q0 -23 15 -23 h168q13 0 13 19q0 23 -13 28l-23 93q-22 19 -68 19q-42 0 -60 -19h-60q0 18 -21 18q-10 0 -12 -7q-9 19 -25.5 23.5t-49.5 4.5q-16 0 -47 -4q-92 -12 -114 -12q-29 0 -64 5t-68 11q-18 1 -36 3q-18 0 -31.5 -6.5t-22.5 -24.5q-1 16 -15 16q-13 0 -17 -16q-4 4 -10 6t-15 2 q-23 0 -27 -14h-42q-1 6 -10 9.5t-21 3.5q-27 0 -31 -13h-33q-7 -12 -7 -19t7 -18h33l-61 -77q-8 -8 -10 -15q-2 -6 2 -12t4 -10q0 -12 -10 -24q0 -17 14 -17h52q-21 -31 -30.5 -57.5t-9.5 -50.5v-10q4 -37 36 -67q25 -24 79 -52q25 9 45.5 39.5t20.5 60.5q0 14 -4 23 q-37 5 -56.5 24.5t-19.5 47.5q0 22 10 42h37q19 0 19 13q2 8 -2.5 15.5t-4.5 10.5t2.5 6.5t3.5 7t1 5.5q0 5 -2.5 9t-6.5 8l-47 80h37q8 -12 27 -12q16 0 30 8v-104q0 -35 17 -53t49 -18h132q4 -15 4 -20v-66q-7 0 -7 -15q0 -14 7 -19q1 -5 1 -13q0 -11 -3.5 -19.5 t-6.5 -16.5q0 -6 9 -15l-47 -67zM660 253q0 -50 -55 -80q-50 -27 -124 -27q-72 0 -123 27q-56 30 -56 80t53.5 78t125.5 28q73 0 126 -27.5t53 -78.5zM391 291q0 15 -21 15q-25 0 -25 -15t25 -15q21 0 21 15zM367 253q0 8 -6.5 12.5t-16.5 4.5q-24 0 -24 -17q0 -9 6.5 -13 t17.5 -4q9 0 16 4t7 13zM396 212q0 8 -6.5 12.5t-15.5 4.5q-25 0 -25 -17t25 -17q22 0 22 17zM453 188q0 18 -26 18t-26 -18t26 -18t26 18zM448 320q0 9 -6.5 13t-17.5 4q-28 0 -28 -17q0 -8 8 -12.5t20 -4.5q24 0 24 17zM510 334q0 18 -26 18q-27 0 -27 -18t27 -18 q26 0 26 18zM569 320q0 17 -22 17q-25 0 -25 -17t26 -17q21 0 21 17zM622 291q0 17 -26 17q-27 0 -27 -17t27 -17q10 0 18 4t8 13zM636 249q0 16 -21 16q-26 0 -26 -16q0 -7 7.5 -11.5t18.5 -4.5q21 0 21 16zM518 178q0 16 -23 16q-28 0 -28 -16q0 -8 7.5 -12t20.5 -4 q11 0 17 3.5t6 12.5z" />
<glyph unicode="k" horiz-adv-x="1740" d="M487 651h678l67 -453h-811zM570 588l-11 -11l-6 -33l12 -10h106l12 10l1 33l-6 11h-108zM548 411l-10 -12l-4 -38l10 -7h114l11 5l2 40l-5 12h-118zM559 502l-11 -10l-4 -41l9 -6h113l11 6l4 41l-6 10h-116zM538 317l-9 -6l-5 -39l8 -12h123l10 12l1 39l-5 6h-123z M770 588l-11 -11v-33l5 -10h112l7 10v33l-7 11h-106zM764 411l-10 -12v-40l5 -5h124l6 5l-2 40l-6 12h-117zM764 502l-5 -10l-5 -41l10 -6h112l13 6l-2 41l-11 10h-112zM759 317l-5 -6l-5 -39l10 -12h122l11 12l-3 39l-6 6h-124zM958 588l-6 -11l2 -33l12 -10h112l5 10 l-5 33l-10 11h-110zM967 411l-3 -12l2 -40l8 -5h117l11 5l-4 40l-11 12h-120zM966 502l-6 -10l1 -41l10 -6h109l11 6l-4 41l-9 10h-112zM974 317l-5 -6l3 -39l10 -12h125l5 12l-4 39l-10 6h-124zM96 0h1460v260l-319 325l-21 128h-776l-19 -133l-325 -320v-260zM1258 754 l25 -155l297 -288l78 84v199l-267 257q-300 54 -562 54q-261 0 -558 -54l-271 -262v-194l77 -89l302 300l26 148h853z" />
<glyph unicode="l" horiz-adv-x="1879" d="M1208 709h-638l-56 -54l-1 -134l-305 -267q-55 -58 -74 -132v-122h1507l-2 122q-12 76 -73 131l-306 270v134zM288 868q-179 -92 -275 -246q-6 -51 -8.5 -111t-2.5 -126v-34q38 -62 104 -104l354 306v94l109 110l641 -1l99 -97v-112l356 -300q83 36 122 110v64 q0 36 -0.5 83.5t-8.5 109.5q-51 82 -117 148q-58 57 -138 110q-159 24 -311.5 37.5t-282.5 13.5q-154 0 -307.5 -13t-333.5 -42zM587 634h599v-429h-599v429zM662 584v-50h97v50h-97zM662 493v-52h97v52h-97zM662 399v-51h97v51h-97zM662 309v-51h97v51h-97zM837 584v-50h97 v50h-97zM837 493v-52h97v52h-97zM837 399v-51h97v51h-97zM837 309v-51h97v51h-97zM1018 584v-50h95v50h-95zM1018 493v-52h95v52h-95zM1018 399v-51h95v51h-95zM1018 309v-51h95v51h-95z" />
<glyph unicode="m" horiz-adv-x="1216" d="M693 874l20 -16q21 22 46 22q27 0 42 -26q-6 2 -13 3t-13 1q-40 0 -40 -37q0 -7 1 -11q68 -131 130 -204q44 -53 96 -88q69 -47 84 -61q11 -9 11 -17q0 -12 -22 -12q-7 -1 -11 -1q-54 0 -101 41t-67 113q-11 50 -54 50q-15 0 -31 -4l162 -207q18 -24 25 -49 q46 -25 86 -25t63 24t23 58q0 23 -12 46q-25 41 -81 74q-72 43 -104 74q-66 65 -118 184q13 13 13 33q0 8 -3 17q-9 21 -23.5 33t-36.5 12q-29 0 -72 -27zM701 696q24 36 24 78q0 62 -49 99q-11 11 -25 19q-5 3 -29 15h-25q-158 -20 -308 -94q-129 -64 -257 -171 q-11 -13 -15 -25q-13 -42 -13 -81q0 -13 1 -21t5.5 -32.5t24 -48.5t50.5 -31l455 -397q10 -5 20 -5t20 5q91 46 191 107q89 54 184 119q10 8 11 18q0 46 -12.5 93.5t-28.5 66.5zM114 391l-18 14q41 0 64.5 5t50.5 25q14 12 23.5 25.5t16.5 30.5q5 17 5 31q0 27 -12 51 q-1 6 -1 17q0 49 37 79v-24q-23 -25 -23 -59q0 -11 3.5 -21t5.5 -24t2 -26q0 -57 -44 -90.5t-110 -33.5zM492 769v-38l-21 7l-120 -58q-6 11 -16 21q73 42 157 68zM584 699q0 74 -51 108l32 11q-3 -6 -3 -12q0 -7 3.5 -15.5t10.5 -18t10.5 -22.5t7.5 -34q3 -8 12 -11.5 t24 -3.5q12 0 26 1t16 1q9 -1 13 -1q-32 -15 -60 -15q-23 0 -41 12zM671 673q8 5 15 5q8 0 14 -7l197 -256q6 -6 6 -12q0 -7 -7 -11l-321 -182q-8 -3 -15 -3q-9 0 -16 7l-190 281q-5 8 -5 13q0 12 13 18zM646 392l28 -41l-35 -19l-30 42zM702 422l-36 -19l28 -42l36 21z M757 452l29 -39l-35 -20l-30 41zM605 450l25 -35l-37 -19l-24 36zM661 480l25 -35l-36 -18l-25 33zM717 509l-37 -20l27 -34l35 19zM678 563l25 -35l-37 -18l-26 35zM622 534l25 -35l-36 -18l-25 36zM567 507l25 -36l-37 -19l-26 35zM530 560l24 -34l-39 -19l-24 34z M608 554l-35 -19l-23 35l34 16zM641 614l-38 -19l24 -33l37 19zM758 460l-45 -24l-9 -9l-1 4l-46 -25l-9 -9l-2 5l-46 -25l-16 -19l38 -53l45 25l7 9l3 -4l46 26l9 9l2 -3l45 25l15 18zM718 516l32 -44l-17 -18l-45 -24l-3 2l-7 -8l-46 -25l-2 4l-8 -8l-47 -24l-32 45l16 18 l48 25l2 -4l8 8l46 24l3 -5l6 10zM708 527l-16 -18l-46 -24l-2 2l-7 -7l-46 -24l-2 3l-7 -9l-48 -23l-30 44l16 19l49 24l2 -4l7 10l45 23l3 -4l6 7l47 24zM671 581l-28 39l-49 -22l-6 -7l-2 2l-44 -20l-8 -9l-2 3l-49 -24l-17 -18l30 -43l48 25l7 7l3 -2l46 23l5 7l3 -3 l47 24z" />
<glyph unicode="n" horiz-adv-x="1659" d="M291 520q-2 -23 -21 -52q-56 -86 -66 -115q-16 -45 -26 -106.5t-10 -120.5q0 -46 7 -80q58 -24 150.5 -35t201.5 -11q84 0 200 6q28 1 177 11q94 6 125 6q23 -1 30 -1h18q73 0 172 7t99 20l10 275q0 62 -42 115q-59 74 -88 74l352 3q-20 118 -38 170q-30 86 -90 142 q-35 32 -96.5 46.5t-123.5 14.5q-64 0 -163 9q-241 22 -312 22q-132 0 -194 -2t-120 -12q-99 -16 -206 -55t-198 -91q-18 -37 -28.5 -105.5t-10.5 -117.5q36 0 103 -5q161 -12 188 -12zM352 561h-35q-90 0 -154 4t-110 20q0 38 7.5 86.5t19.5 75.5q101 39 149 55 q91 32 161 47q90 20 165 20q64 0 186.5 -2.5t153.5 -2.5q101 0 191 -8t197 -24q91 -13 135 -53q36 -32 84 -126q-14 -15 -63 -21.5t-107 -6.5q-38 0 -52 1q-16 3 -20 3l-3 -44l263 3v-24q-23 -6 -53 -8t-69 -2q-49 0 -130.5 3.5t-91.5 3.5l-3 88q0 15 -125.5 23.5 t-295.5 8.5q-135 0 -247.5 -5t-141.5 -14l-4 -27l-228 -10v-21q10 -10 52 -13.5t101 -3.5h35t30 1q1 -3 1.5 -11t1.5 -16zM239 84q-4 18 -6 42t-2 45q0 49 13 130q7 43 14 87q18 14 59 57q61 65 103 65q8 44 17 88q13 8 29.5 11.5t38.5 3.5q20 0 54 -2.5t38 -2.5 q20 0 29.5 1.5t21.5 7.5q0 -3 6 -9t6 -10h271l6 27q42 0 87 -1t89 -2q0 -23 6 -55.5t14 -53.5q7 0 67 -34t67 -34q20 -40 28.5 -77t8.5 -72q0 -23 -4 -62q-9 -87 -9 -127q-25 -11 -189.5 -25t-326.5 -14q-68 0 -134.5 -0.5t-130.5 -0.5q-119 0 -185 3.5t-86 13.5zM768 505 q-124 0 -175 -18q-85 -30 -85 -121q0 -21 2 -33q48 -29 115 -42t143 -13q89 0 154 14q29 7 63 40q41 40 41 81q0 8 -1 12q-6 45 -154 68q-9 1 -103 12z" />
<glyph unicode="o" horiz-adv-x="931" d="M589 923q-209 -90 -374 -274t-215 -386q0 -58 11 -89.5t40 -70.5q-12 -23 -22.5 -61t-10.5 -73q0 -52 17.5 -89.5t60.5 -54.5q9 -4 20.5 -6t22.5 -2h12q8 2 12 2q29 5 52 17.5t42 33.5q50 57 112 179q48 102 98 206.5t81 132t73 46t70 18.5l-28 30q-77 0 -143 -75 q-49 -56 -101 -167q-39 -86 -77 -171q-49 -100 -91 -153q-56 -70 -107 -70q-30 0 -60 24q-19 14 -28 39.5t-9 55.5q0 60 27 104q16 -19 24 -28q14 -16 28 -24q12 -12 28 -12q13 0 26.5 8.5t18.5 20.5l104 172q5 8 5 19q0 16 -11 28.5t-18 9.5l-39 -67l-19 -6l47 85 q-32 25 -69 35q72 137 169 239q77 81 199 167q22 -38 29 -50q12 -20 21.5 -29.5t19.5 -15t19 -5.5t19 8l190 133q14 11 14 30q0 18 -14 31l-81 -57l-24 7l93 69q-51 50 -128 71q-56 15 -136 15zM131 430q59 109 124 185q73 86 168 146l45 19q-114 -80 -204 -185 q-72 -84 -145 -206zM205 246l-58 41l24 5l50 -24zM103 91q-33 32 -51.5 74.5t-18.5 80.5q27 -68 37 -86q16 -28 37 -45zM766 808q-67 38 -107 54t-82 20q13 3 18 3.5t18 0.5q40 0 93.5 -13t100.5 -36zM583 734v34l63 -70l-22 -15z" />
<glyph unicode="p" horiz-adv-x="470" d="M210 258l-67 -246l41 -12q15 0 22 2t12 26l48 178q2 6 2 16q0 21 -17 24zM390 914l-65 -247l42 -11q8 -3 15.5 3t12.5 20l51 191q1 3 1 11q0 7 -2 10q-2 8 -10 10zM360 921q-82 0 -183 -104q-40 -42 -75 -115t-62 -174q-20 -73 -27 -145t-7 -140q0 -32 9.5 -64t27.5 -69 t35 -58.5t39 -32.5l67 246q-29 6 -31 26l-3 30t-1 13q0 16 5 38l61 223q5 20 14 36q5 10 18.5 28t33.5 18q4 0 12 -2z" />
<glyph unicode="q" horiz-adv-x="641" d="M382 272l161 -223q2 -3 7.5 -4t7.5 0q37 21 50 46q5 5 -3 13l-156 207q-7 5 -38.5 -12.5t-28.5 -26.5zM249 640l71 20q16 6 14 21l-29 209q-2 8 -11 12l-85 14q-14 2 -14 -8zM183 911q-3 7 -9 7q-8 0 -55 -18q-17 -5 -61.5 -42t-46.5 -53t-6 -73t-4 -86q0 -91 14 -168 t40 -143q42 -107 101 -178q71 -86 183 -141q25 -11 68 -11q33 0 57 4.5t52 16.5q2 1 6 8.5t2 11.5l-151 213q-2 1 -7 2t-15 1q-12 0 -25.5 -1t-26.5 -2q-7 0 -17 2q-27 15 -53.5 58t-49.5 104q-19 53 -31 106t-12 86q0 10 1 14q6 -3 17.5 -4t12.5 -1q16 0 32 3t18 5 q15 10 15 16zM591 104q-20 -17 -40 -33q-2 -5 -3 -10q18 13 24 18q17 13 19 25zM252 686l-6 31q2 -3 12 -3q13 0 30.5 4t22.5 9l1 -20l-4 -7q-2 -4 -28.5 -11t-27.5 -3zM245 723l-3 17h13q26 0 37 1t16 7l1 -13q-3 -6 -22 -9t-42 -3zM214 643q-3 -4 -12.5 -6t-23.5 -2 q-22 0 -40 5q-23 4 -36 10q-20 9 -21 23q10 -8 25 -13t44 -11t64 -6zM83 330q7 2 12 -4l60 -88q37 -52 62 -73q6 -20 12 -39q-45 38 -84 95q-34 50 -62 109zM297 186q-2 -6 -3 -16.5t-1 -20.5q0 -13 2 -29t4 -23q-7 6 -13 27.5t-6 41.5q0 14 3 23q9 23 19.5 33.5t22.5 12.5 q-11 -15 -16 -22q-8 -12 -12 -27zM401 261q16 10 32 21q9 5 14 5l11 -15q-5 1 -19 -7q-7 -4 -27 -17zM503 119l50 34l18 -19l-51 -35z" />
<glyph unicode="r" horiz-adv-x="625" d="M229 772q-38 -91 -77 -186.5t-67 -186.5q-10 -31 -18 -63.5t-8 -53.5q0 -13 3 -22l52 -183q-28 -9 -37.5 -24.5t-9.5 -45.5q-18 -14 -24 -30t-6 -54q-11 -6 -16.5 -16.5t-5.5 -23.5q0 -17 8.5 -29.5t22.5 -12.5l6 15q-9 0 -15 10t-6 21t6 17q4 -18 22.5 -27.5t39.5 -9.5 q23 0 28 12q7 21 -18.5 38.5t-51.5 14.5q-1 4 -1 12q0 11 4.5 25t10.5 21q7 -18 24.5 -26.5t35.5 -8.5q24 0 31 10q9 16 -15.5 36.5t-49.5 20.5q-4 0 -12 -2q-2 8 -2 11q0 15 12.5 24t23.5 9l33 -48q6 -8 22.5 -12.5t29.5 -4.5h178q12 0 18.5 16.5t6.5 34.5q0 10 -1 14 l-76 210q-2 9 -4 22t-2 24q0 19 6 36l99 286q10 28 54.5 37.5t55.5 29.5l52 86q2 2 2 13q0 17 -2.5 29.5t-7.5 15.5l-78 46q-44 25 -76 22q-24 0 -55 -16q-12 -6 -54 -33q-38 -24 -55.5 -43.5t-35.5 -56.5zM338 785q-9 -14 -37.5 -20t-33.5 -19l-110 -289l-20 -5l115 309 q4 6 24 12q45 14 48 17l48 72l28 18zM463 718l-20 -4q-27 6 -44 19t-17 28q0 13 14 44q17 33 19 38q3 -10 6.5 -17.5t3.5 -11.5q-12 -24 -13 -25q-6 -14 -6 -32q6 -14 17 -20q21 -10 40 -19zM219 174q20 -58 58 -58q24 0 53 20l2 -15q-16 -12 -31.5 -17t-29.5 -5 q-24 0 -40.5 11.5t-21.5 29.5l-24 72q0 2 8 7t11 7zM267 241h-38l47 9q7 4 14 1.5t10 -10.5l-24 -5zM157 98l-68 210l10 14l73 -239zM367 41l-138 4v10h156zM276 662l24 -5l-10 -39l-28 9zM229 522l23 -4l-10 -39h-28zM252 595l24 -6l-9 -38l-29 5zM204 446l25 -4l-10 -38 l-29 5zM324 646l24 -4l-10 -33l-28 5zM276 513l24 -5l-10 -39l-28 5zM300 584l24 -9l-9 -34l-30 6zM252 442l24 -5l-9 -38l-29 5zM372 632l28 -5l-15 -32l-27 4zM324 503l24 -4l-10 -34h-28zM348 569l24 -3l-10 -34l-30 5zM300 431h30l-15 -38l-30 6zM57 -88q0 6 7 6 q12 0 29.5 -11.5t15.5 -17.5q-2 -3 -9 -3q-14 0 -28.5 7.5t-14.5 18.5zM85 3q0 11 9 11q13 0 32 -16t16 -23q-3 -5 -15 -5q-15 0 -28.5 8t-13.5 25z" />
<glyph unicode="s" d="M603 781q0 -19 -3 -40.5t-8 -42.5q-12 -46 -43 -85q7 -3 17.5 -5.5t17.5 -2.5q14 0 24 6.5t17.5 19t16.5 44.5t9 51q0 23 -12 34.5t-36 20.5zM94 191q4 -2 10 -2q9 0 14 7t5 16q-20 29 -34.5 55.5t-20.5 48.5q-22 65 -22 144q0 86 27.5 158.5t90.5 135.5t135 91.5 t153 28.5q87 0 165.5 -30.5t136 -88.5t89 -138t31.5 -164q0 -82 -28 -153q-45 -113 -153.5 -186t-233.5 -73q-103 0 -163 32.5t-60 84.5q0 13 3.5 22.5t13.5 22.5q6 -6 13.5 -12.5t13.5 -8.5q14 5 36 26t34 40q30 37 37 75q-14 12 -20 23.5t-6 29.5q0 27 10 57t29 67 q14 25 20 36q2 3 33 53q12 18 27.5 25t33.5 7q10 -1 15 -1q14 18 23.5 39.5t16 44.5t8.5 43t2 41q-23 6 -44 6q-38 0 -71.5 -18t-53.5 -43q-54 -68 -96 -139q-49 -83 -69 -153q-12 -38 -20.5 -77t-8.5 -69q0 -22 2.5 -36t9.5 -31q-15 -18 -22.5 -37t-7.5 -41q0 -34 19 -63 t52.5 -46.5t83.5 -29t106 -11.5q90 0 175 34q58 23 109.5 64.5t87.5 90.5q40 58 64.5 128.5t24.5 141.5q0 67 -21 132t-57.5 121.5t-91.5 103t-116 69.5q-83 31 -184 31q-42 0 -81 -6q-65 -11 -124.5 -42.5t-110.5 -82.5q-64 -64 -99 -149t-35 -177q0 -77 23 -146t71 -122z M405 313q-6 -24 -13 -40t-20.5 -36t-33.5 -39t-38 -29q13 -7 24 -11.5t24 -4.5t31 13t29.5 29.5t20.5 37t9 34.5t-11 27q-6 8 -22 19z" />
<glyph unicode="t" horiz-adv-x="558" d="M45 398q33 -93 76 -187q49 -109 93 -181q13 -20 28.5 -25t45.5 -5l140 12q50 0 82 41h-77l-98 -7q-32 0 -43 7l-210 428q-15 32 -30 92.5t-15 95.5l-16 240l31 2q15 0 20 -14l44 -180l188 -16l-26 182q-1 8 -4.5 14t-9.5 6l-240 20q-16 -7 -20 -22t-4 -51l16 -281 q6 -74 8 -85q6 -48 21 -86zM95 527l222 -409l179 3q20 0 17 -20v-22l16 -8l3 26q0 21 -1 26t-9 17l-217 380q-20 37 -20 82q0 21 4.5 43t14.5 44l-190 16q-16 -30 -25.5 -58t-9.5 -55q0 -34 16 -65zM438 259l-175 -3l-127 232l172 -2zM171 447q6 -6 15 -6q6 0 10.5 2.5 t6.5 6.5q-16 0 -25.5 6t-11.5 19q-4 -2 -4 -9q0 -11 9 -19zM200 391q8 -6 15 -6q12 0 17 10q-18 0 -24 5q-12 8 -12 19l-3 1q-2 -4 -2 -9q0 -14 9 -20zM231 334q8 -6 15 -6q12 0 17 10l-3 2q-12 -3 -23 3q-10 8 -10 20l-3 1q-2 -4 -2 -11q0 -13 9 -19zM260 279q8 -6 14 -6 t10 2.5t8 6.5l-3 3q-8 -2 -10 -2q-7 0 -11 4q-11 6 -13 20l-2 2q-2 -4 -2 -10q0 -14 9 -20zM227 444q8 -6 16 -6q15 0 17 9l-2 2q-14 -4 -20.5 1t-9.5 11t-4 12q-5 -3 -5 -12t8 -17zM257 388q8 -6 15 -6q14 0 17 10q-17 0 -25 4q-11 9 -11 21q-4 -4 -4 -12q0 -10 8 -17z M288 332q6 -6 15 -6q14 0 16 9l-1 3q-8 -2 -11 -2q-6 0 -10 4q-7 2 -10 9t-4 11q-4 -2 -4 -10q0 -10 9 -18zM317 275q-9 8 -9 20q0 8 3 11q2 -14 11.5 -20t15.5 -6q3 0 9 2l2 -2q-4 -10 -18 -10q-8 0 -14 5zM281 444q8 -6 15 -6q14 0 16 9q-15 0 -21.5 3.5t-9.5 10t-4 12.5 q-5 -2 -5 -12q0 -9 9 -17zM310 388q8 -6 15 -6q13 0 16 10q-14 0 -23 5t-13 20q-4 -4 -4 -12q0 -9 9 -17zM340 332q-9 8 -9 20q0 5 2 9q3 -6 6.5 -12.5t8.5 -8.5q5 -4 13 -4q3 0 9 2l3 -3q-5 -9 -18 -9q-7 0 -15 6zM370 277q7 -7 15 -7q13 0 16 10q-15 -1 -25 5.5t-10 19.5 l-3 1q-2 -4 -2 -10q0 -13 9 -19zM311 212l8 -10l121 5l-7 9zM315 233l9 -11l89 2l-7 10zM340 194l92 2l6 -11l-89 -2zM175 828l28 -2q9 0 11 -9l1 -14q1 -2 -0.5 -5t-6.5 -3h-25q-7 0 -11 9l-5 16q-1 8 8 8zM200 570q-24 0 -43 7.5t-21 18.5q-3 10 12 17t39 7q26 0 44 -6.5 t20 -17.5q3 -10 -12 -18t-39 -8z" />
<glyph unicode="u" horiz-adv-x="476" d="M168 878v43h-26v273h-20v-273h-24v-43h-32q-8 0 -17 -13t-9 -20q0 -63 -4 -188t-4 -188q0 -69 4 -206t4 -205q0 -5 10.5 -15.5t15.5 -10.5h317l46 18q6 3 12 11.5t6 11.5q0 68 3.5 208t3.5 193q0 66 -2 141q-5 188 -5 232q0 11 -13 23q-9 8 -17 8h-249zM409 854 q5 0 12.5 -9.5t7.5 -15.5q0 -58 3 -175t3 -174q0 -98 -2 -185t-4 -211q0 -8 -10 -18q-6 -6 -10 -6h-324q-7 0 -16 10.5t-9 17.5q0 66 -2 142q-5 191 -5 240q0 63 3.5 189t3.5 169q0 7 7.5 16.5t14.5 9.5h327zM32 816q-15 -77 -22.5 -169t-7.5 -190q0 -99 2.5 -253.5 t2.5 -176.5q0 -8 8.5 -17.5t16.5 -9.5h244l82 24h-303q-6 0 -14.5 10t-10.5 16q0 69 -3 209t-3 210q0 58 4 174t4 173zM364 357v35q0 16 -24 16q-11 0 -17.5 -3.5t-6.5 -12.5v-35q0 -15 24 -15t24 15zM364 485v33q0 14 -24 14t-24 -14v-33q0 -17 24 -17t24 17zM364 608v36 q0 14 -24 14t-24 -14v-36q0 -16 24 -16q11 0 17.5 3.5t6.5 12.5zM273 357v35q0 16 -23 16q-11 0 -17 -3.5t-6 -12.5v-35q0 -15 23 -15t23 15zM273 485v33q0 14 -23 14t-23 -14v-33q0 -8 6.5 -12.5t16.5 -4.5q23 0 23 17zM273 608v36q0 14 -23 14t-23 -14v-36q0 -16 23 -16 q11 0 17 3.5t6 12.5zM186 357v35q0 16 -24 16q-11 0 -17.5 -3.5t-6.5 -12.5v-35q0 -15 24 -15t24 15zM186 485v33q0 14 -24 14t-24 -14v-33q0 -17 24 -17t24 17zM186 608v36q0 14 -24 14t-24 -14v-36q0 -16 24 -16q11 0 17.5 3.5t6.5 12.5zM371 717q26 0 26 26v44 q0 26 -26 26h-247q-26 0 -26 -26v-44q0 -26 26 -26h247zM371 129q26 0 26 26v45q0 11 -7.5 18.5t-18.5 7.5h-247q-26 0 -26 -26v-45q0 -26 26 -26h247zM397 266v21h-299v-21h299zM124 213h244q16 0 16 -17v-39q0 -17 -16 -17h-244q-15 0 -15 17v39q0 17 15 17z" />
<glyph unicode="v" horiz-adv-x="1032" d="M35 101l-35 79l76 127q57 154 114 309q40 89 78 159q50 91 93 142q27 3 46 3q32 0 56 -10q19 -15 37 -36q22 -26 29 -48l24 46l390 -9l40 -74l-205 -589q-12 -36 -25.5 -64.5t-58.5 -110.5q-12 -23 -31 -23q-7 0 -12 1zM184 289l-86 11q46 194 133 378q30 63 64 121 q38 64 72 108q7 0 15.5 1t13.5 1q20 0 40 -6q-31 -57 -65 -122.5t-62 -128.5q-42 -92 -73 -180q-35 -97 -52 -183zM644 93l-629 86l66 110l13 -75l94 -14q19 -2 39 -3q19 0 35 5.5t27 19.5q19 25 34 62q10 24 20 63l-61 109q41 113 98 235l108 1l-38 -93l389 -20l-111 -314 q-24 -67 -40 -101q-20 -41 -44 -71zM575 483l39 -2l17 39l-39 2zM550 421l40 -2l16 39l-39 2zM525 360l39 -4l17 41l-40 2zM500 298l40 -3l16 39l-39 2zM462 161l38 -3l17 38l-39 4zM404 304l39 -3l16 39l-39 2zM346 171l39 -5l17 39l-39 4zM640 480l39 -3l17 40l-39 1z M615 417l40 -1l15 38l-38 2zM589 356l40 -2l16 37l-39 3zM564 294l40 -3l17 39l-39 3zM703 476l41 -3l17 39l-41 2zM679 414l39 -2l17 38l-39 3zM654 351l39 -2l16 39l-39 2zM629 289l39 -2l17 39l-39 2zM573 148l38 -4l17 39l-40 4zM490 618l9 24l355 -16l-8 -23zM505 657 l9 23l355 -14l-9 -24zM520 696l9 23l354 -13l-8 -23zM534 736l9 23l354 -13l-7 -23zM547 776l9 24l353 -13l-7 -24zM560 813l9 24l355 -11l-9 -23z" />
<glyph unicode="w" horiz-adv-x="994" d="M437 75l-212 4q-3 0 -15 10q-4 3 -12 10v30v25v22v18v16v14v12q0 19 -0.5 38t-0.5 39v12q0 54 -12 140.5t-22 163.5q0 15 -9 49t-17 54l-62 146q-2 6 -2 9q0 17 25 14l190 -20q5 -1 14 -8q3 -2 8 -8q36 -59 55 -98q32 -66 42 -124l31.5 -168t16.5 -156q0 -58 1 -116 t2 -110q0 -3 -5 -8q-10 -10 -16 -10zM763 717q3 0 5.5 -3.5t2.5 -8.5l15 -125q2 -16 -8 -16l-344 16l-11 70l315 -21l13 71l-347 19l-6 25zM769 734l-379 28l-32 57l426 -34q5 -1 10 -6t6 -10q11 -49 18 -132t9 -99.5t3.5 -26t6.5 -30.5l83 -414q1 -10 -8.5 -15.5 t-22.5 -5.5l-407 5q-6 -4 -19.5 -9t-25.5 -4l-234 7q-18 0 -29 22q-6 12 -13 40l-69 402q-4 27 -4 62v35q0 33 -3.5 54.5t-16.5 43.5l-48 85l-17 -89l-3 -28l103 -538q6 -28 17 -54t26 -48q11 -16 33.5 -22t49.5 -6l672 -4q17 0 31 25t11 45l-83 411l-9 49q-9 79 -13 118 q-9 75 -17 120q-2 12 -12.5 24t-19.5 12l-438 32l-29 41q-4 6 -14.5 13t-19.5 9l-188 22q-12 1 -23 -3t-16 -12t-13.5 -33t-8.5 -40q0 -5 2 -11l70 -131q5 -7 7 -22.5t3 -27.5l41 -336q7 -61 9.5 -111.5t2.5 -92.5q0 -18 9 -29t22 -11l232 -8q20 0 29.5 12.5t9.5 31.5 q0 56 -2 115.5t-3 109.5q0 67 -10.5 125t-21.5 117l354 -18q5 0 9 4q8 9 5 20l-21 151q0 13 -17 13zM611 251l-60 3l11 -42l57 -2zM633 173l-59 4l10 -43l58 -1zM597 330l-58 3l10 -42l57 -1zM581 412l-60 3l11 -42l57 -1zM706 248l-59 1l11 -41l56 -1zM729 170l-59 1 l11 -40l57 -2zM693 326l-59 3l11 -42l57 -1zM676 409l-58 1l10 -40l58 -2zM800 243l-58 3l11 -42l57 -2zM823 166l-59 3l10 -43l59 -1zM787 322l-60 3l12 -42l58 -2zM771 405l-59 2l10 -41l58 -2zM753 486l-59 1l10 -39l58 -2z" />
<glyph unicode="x" horiz-adv-x="1580" d="M75 431q-17 -4 -25.5 -11t-11.5 -26l-38 -259q30 -3 76 -4t52 -1q92 0 183 9t203 27q80 13 188 33q173 31 384.5 107.5t386.5 166.5q19 10 19 18q0 6 -4 15l-111 227q-6 14 -16.5 16t-18.5 4q3 6 6 16.5t1 15.5l-38 79q-2 5 -7 8.5t-11 5.5q-68 24 -164 34.5t-197 10.5 q-110 0 -240 -24q-165 -30 -317.5 -105t-283.5 -187q-4 -4 -10 -13.5t-7 -14.5l-21 -105q-3 -14 2 -21q11 -12 20 -22zM1267 860q17 -8 24 -21l27 -60q3 -9 3 -10q0 -7 -14 -7q-7 0 -11 1q-73 12 -143.5 18t-155.5 6q-104 0 -200.5 -11.5t-185.5 -36.5q-97 -29 -188 -75 q-75 -38 -160.5 -95.5t-167.5 -113.5q-9 -5 -14.5 0t-4.5 11l19 102q1 4 6.5 14.5t8.5 13.5q76 59 152 106q85 52 165 85q129 55 272.5 82.5t289.5 27.5q62 0 147.5 -9.5t130.5 -27.5zM1009 720l39 -106q-124 -50 -326 -99q-143 -36 -191 -46q-111 -23 -193 -23l16 108 q73 9 153 26t173 41.5t179 50.5q106 34 150 48zM1250 402l-87 230q46 15 96 38q19 9 95 46l107 -215q-41 -23 -104 -52q-54 -25 -107 -47zM391 516v-24q84 10 194 32.5t209 49.5q113 31 194 62l-10 24q-65 -26 -172.5 -56t-217.5 -54q-42 -9 -97 -18.5t-100 -15.5zM1014 312 l-67 244q94 28 190 69l90 -227q-47 -23 -108 -48q-54 -22 -105 -38zM27 158l35 244q107 0 219.5 12.5t244.5 36.5q161 28 395 94l64 -242q-111 -31 -217 -55.5t-203 -39.5q-132 -23 -266 -36.5t-272 -13.5zM18 89l101 -89h1198l188 193l-6 244q-150 -83 -327 -152 q-226 -85 -455 -131q-77 -16 -172 -30t-171 -21.5t-176 -10.5t-180 -3zM208 190q21 0 34.5 7.5t13.5 18.5t-13.5 18t-34.5 7t-34.5 -7t-13.5 -18q0 -10 14 -18t34 -8zM355 206q19 0 32 9t13 20q0 10 -14 16t-35 6q-20 -2 -32 -10t-12 -20q0 -9 14 -15t34 -6zM516 226 q20 3 32 12.5t10 20.5q-3 18 -36 18q-10 0 -15 -1q-44 -9 -41 -33q3 -18 38 -18q8 0 12 1zM672 254q18 5 29.5 16t8.5 21q-3 15 -33 15q-12 0 -18 -2q-19 -6 -30.5 -16.5t-8.5 -20.5q1 -5 8.5 -10.5t24.5 -5.5q8 0 19 3zM353 278q20 0 32.5 8t10.5 20q0 10 -12.5 15t-34.5 5 q-18 0 -31 -9t-11 -19q0 -9 10.5 -15t26.5 -6q6 1 9 1zM507 296q20 4 31.5 13t9.5 20q-3 18 -37 18q-8 0 -19 -2.5t-22.5 -11.5t-9.5 -19q1 -10 15 -15t32 -3zM656 325q18 4 29 14.5t8 21.5q-3 14 -32 14q-5 0 -17 -2q-19 -7 -29.5 -17t-7.5 -20q5 -14 29 -14q9 0 20 3z M214 334q17 0 30 7t13 17q0 11 -12 18t-31 7t-31.5 -7t-12.5 -18q0 -10 12 -17t32 -7zM348 350q17 0 29.5 9t12.5 19q0 8 -13.5 14t-31.5 6t-29.5 -8t-11.5 -19q0 -10 13 -16.5t31 -4.5zM497 371q18 2 29.5 11t9.5 20q-4 15 -34 15q-7 0 -18.5 -2t-23 -10t-9.5 -18 q3 -17 34 -17q8 0 12 1zM639 396q19 5 29 14t8 19q-3 15 -30 15q-10 0 -23.5 -3.5t-24 -13.5t-7.5 -20q3 -14 29 -14q10 0 19 3z" />
<glyph unicode="y" horiz-adv-x="888" d="M195 716h119q11 0 9 -12q-26 -63 -39 -152.5t-13 -186.5q0 -92 9 -164q2 -9 -0.5 -16t-9.5 -7h-139q-4 0 -8.5 6t-4.5 14q0 162 12.5 274.5t52.5 231.5q7 12 12 12zM478 690l-3 -47h68l1 47h-66zM475 631l-3 -50h71v50h-68zM472 563l-2 -55h75v55h-73zM470 492l-4 -63h79 l-1 63h-74zM557 690v-47h66l-2 47h-64zM557 631v-50h71l-3 50h-68zM557 563l3 -55h72l-4 55h-71zM632 690l4 -47h67l-6 47h-65zM638 631l3 -50h70l-6 50h-67zM641 563l5 -55h76l-9 55h-72zM647 492l3 -63h83l-11 63h-75zM462 346l-3 -92h296l-15 92h-278zM202 875h469 l10 -76h-489zM186 891l-15 -109h528l-15 109h-498zM31 92h788l-19 -73h-748zM0 129q0 -20 3 -29l33 -100h780l27 103q3 8 3 21l-120 799l-589 -1zM152 906h559l114 -774h-798zM300 164q10 0 16.5 6.5t6.5 11.5v61q0 3 -2.5 8t-7.5 11.5t-10 14.5q-4 39 -4 96q0 67 6 134.5 t16 113.5h10l17 86l-18 21h-142q-11 0 -15 -14q-33 -92 -53.5 -201.5t-20.5 -211.5q0 -56 8 -114q0 -8 3.5 -15.5t8.5 -7.5h181z" />
<glyph unicode="z" horiz-adv-x="1228" d="M124 863q-28 0 -28 -24v-752q0 -12 7 -20t21 -8h194q14 0 22 8t8 20v752q0 24 -30 24h-194zM141 833h162q24 0 24 -24v-694q0 -26 -24 -26h-162q-12 0 -18 7t-6 19v694q0 24 24 24zM71 895h1027q18 0 31 -13t13 -33v-781q0 -18 -12.5 -31.5t-31.5 -13.5h-1027 q-19 0 -32 13t-13 32v781q0 20 13 33t32 13zM48 923q-13 0 -30.5 -18.5t-17.5 -31.5v-824q0 -15 17 -32t31 -17h1069q14 0 33.5 17.5t19.5 31.5v824q0 14 -19 32t-34 18h-1069zM1021 841h-574v-27h574v27zM1021 734h-574v-29h574v29zM1021 681h-574v-28h574v28zM1021 788 h-574v-29h574v29zM438 482h197v-236h-197v236zM691 281h85v-41h-85v41zM691 422h85v-39h-85v39zM691 351h85v-39h-85v39zM691 494h85v-40h-85v40zM958 281h86v-41h-86v41zM958 422h86v-39h-86v39zM958 351h86v-39h-86v39zM958 494h86v-40h-86v40zM821 281h86v-41h-86v41z M821 422h86v-39h-86v39zM821 351h86v-39h-86v39zM821 494h86v-40h-86v40zM435 602q-16 0 -27 -11t-11 -27v-386q0 -15 11 -26t27 -11h628q15 0 26 11t11 26v386q0 15 -10.5 26.5t-26.5 11.5h-628z" />
<glyph unicode="&#xaa;" horiz-adv-x="1696" d="M197 0h1231q68 0 68 61v202q0 37 -8.5 55t-43.5 49l-311 292v68h-147v-63h-362l-6 63h-130v-63l-301 -297q-28 -26 -40 -48.5t-12 -55.5v-202q0 -61 62 -61zM809 361q-137 0 -234.5 34t-97.5 82q0 46 98 80t234 34q134 0 232 -33.5t98 -80.5q0 -48 -97.5 -82t-232.5 -34z M0 623v-43q0 -11 12 -21t23 -10h271q42 0 42 31v43h-348zM1616 623h-343v-43q0 -14 11.5 -22.5t24.5 -8.5h277q11 0 20.5 9.5t9.5 21.5v43zM809 773q104 0 192 -4t166 -16.5t110 -37.5q-4 -19 -4 -61v-12h343q-19 109 -77 165q-53 51 -163 76t-212 32.5t-355 7.5 q-172 0 -264.5 -4.5t-174.5 -15.5q-36 -5 -135 -22t-156 -71q-60 -58 -79 -168h348v23q0 35 -5 50q31 24 106.5 36.5t174 17t185.5 4.5z" />
<glyph unicode="&#xb2;" horiz-adv-x="1337" d="M1130 252h144v263l-165 408h-955l-154 -408v-263h139l-78 -252h1141zM296 701h674l196 -687h-1069zM552 288l30 201l11 -201h-41zM866 334l67 -232h166l-140 274l-15 252h-98l5 -191l-57 191h-108l56 -263l-15 -129l-72 392h-134l-47 -201l-77 5l15 114h72l11 82h-181 l-150 -526h171l41 243h72l-82 -243h149l16 98h67l5 -98h253z" />
<glyph unicode="&#xb3;" horiz-adv-x="1299" d="M1238 0v370h-212l-20 -155h-780l-20 155h-206v-370h1238zM262 247h713l62 676h-842zM288 268l-62 634h780l-52 -635z" />
<glyph unicode="&#xb9;" horiz-adv-x="1337" d="M335 515h87l16 72h52l5 36h-52l5 16h47l10 36h-129zM588 587l10 52l5 -52h-15zM490 515h87l6 31h30v-31h93h98l6 62l31 -62h93l-57 82l10 78h-83l-5 -47l-20 47h-78l36 -78l-31 -72l-46 150h-119zM942 453l-5 20l-607 1l-5 -21h617zM957 396l-6 21h-636l-5 -20zM974 329 l-5 21h-671l-6 -21h682zM993 257l-7 26h-706l-6 -26h719zM1014 175l-8 30h-746l-7 -28zM1036 93l-8 30h-789l-9 -31zM303 701h665l203 -687h-1063zM1131 257h143v263l-160 403h-955l-159 -403v-263h144l-74 -257h1132z" />
<glyph unicode="&#xba;" horiz-adv-x="931" d="M589 923q-209 -90 -374 -274t-215 -386q0 -58 11 -89.5t40 -70.5q-12 -23 -22.5 -61t-10.5 -73q0 -52 17.5 -89.5t60.5 -54.5q9 -4 20.5 -6t22.5 -2h12q8 2 12 2q29 5 52 17.5t42 33.5q50 57 112 179q48 102 98 206.5t81 132t73 46t70 18.5l-28 30q-77 0 -143 -75 q-49 -56 -101 -167q-39 -86 -77 -171q-49 -100 -91 -153q-56 -70 -107 -70q-30 0 -60 24q-19 14 -28 39.5t-9 55.5q0 60 27 104q16 -19 24 -28q14 -16 28 -24q12 -12 28 -12q13 0 26.5 8.5t18.5 20.5l104 172q5 8 5 19q0 16 -11 28.5t-18 9.5l-39 -67l-19 -6l47 85 q-32 25 -69 35q72 137 169 239q77 81 199 167q22 -38 29 -50q12 -20 21.5 -29.5t19.5 -15t19 -5.5t19 8l190 133q14 11 14 30q0 18 -14 31l-81 -57l-24 7l93 69q-51 50 -128 71q-56 15 -136 15zM131 430q59 109 124 185q73 86 168 146l45 19q-114 -80 -204 -185 q-72 -84 -145 -206zM205 246l-58 41l24 5l50 -24zM103 91q-33 32 -51.5 74.5t-18.5 80.5q27 -68 37 -86q16 -28 37 -45zM766 808q-67 38 -107 54t-82 20q13 3 18 3.5t18 0.5q40 0 93.5 -13t100.5 -36zM583 734v34l63 -70l-22 -15z" />
<glyph unicode="&#x152;" horiz-adv-x="2812" d="M1224 868l-276 -247l-11 -271l105 -101l354 304v224h860l-1 -227l345 -301l123 107l-9 259l-256 257q-150 23 -307.5 37t-285.5 14q-156 0 -309 -13t-332 -42zM2195 707h-745v-186l-381 -333v-188h1508l-1 188l-382 333zM1827 201q-129 0 -221 63t-92 152q0 88 92 151 t221 63t220.5 -62.5t91.5 -151.5t-92 -152t-220 -63zM593 923q-213 -91 -377.5 -275t-215.5 -389q0 -58 11 -90.5t40 -70.5q-12 -23 -22.5 -61.5t-10.5 -74.5q0 -51 16 -85q20 -42 63 -59q21 -9 44 -9q33 0 64.5 15t52.5 39q50 57 113 181q49 102 98 205q53 108 84 137 q30 26 72 44.5t71 18.5l-29 30q-78 0 -144 -75q-50 -57 -102 -168l-76 -172q-52 -104 -92 -155q-56 -70 -108 -70q-16 0 -30.5 5.5t-31.5 19.5t-26.5 39.5t-9.5 57.5q0 59 27 103q21 -23 25 -28q16 -18 27 -25q12 -12 29 -12q14 0 27 8.5t19 20.5l104 173q5 9 5 20 q0 16 -11 28.5t-18 9.5l-39 -68l-19 -6l46 86q-33 25 -68 35q50 97 109 172q53 68 123 130q54 48 137 107q12 -20 24 -41q16 -29 28 -40q18 -20 37 -20q11 0 20 9l191 133q15 10 15 30q0 17 -15 32l-81 -58l-24 7l93 69q-51 50 -128 71q-59 16 -137 16zM132 427 q60 111 124 186q74 86 169 147l46 19q-115 -79 -205 -185q-72 -84 -146 -208zM206 242l-58 41l24 5l51 -24zM103 86q-34 34 -51.5 75t-17.5 81q25 -69 37.5 -90.5t36.5 -41.5zM771 807q-69 39 -107 54t-83 21q13 3 18 3.5t17 0.5q42 0 95 -13t102 -37zM587 733v34l63 -70 l-22 -16z" />
<glyph unicode="&#x153;" horiz-adv-x="2807" d="M1218 869l-277 -248l-10 -270l105 -102l354 304v224h860l-1 -227l345 -301l124 107l-10 259l-256 257q-158 25 -307.5 38t-285.5 13q-153 0 -307.5 -13t-333.5 -41zM2189 707h-745v-186l-381 -332v-189h1508l-2 188l-381 333zM1822 201q-130 0 -222 63t-92 152 t91.5 151.5t222.5 62.5q129 0 219.5 -62t90.5 -152q0 -89 -91 -152t-219 -63zM589 923q-209 -90 -374 -274t-215 -386q0 -58 11 -89.5t40 -70.5q-12 -23 -22.5 -61t-10.5 -73q0 -52 17.5 -89.5t60.5 -54.5q9 -4 20.5 -6t22.5 -2h12q8 2 12 2q29 5 52 17.5t42 33.5 q50 57 112 179q48 102 98 206.5t81 132t73 46t70 18.5l-28 30q-77 0 -143 -75q-49 -56 -101 -167q-39 -86 -77 -171q-49 -100 -91 -153q-56 -70 -107 -70q-30 0 -60 24q-19 14 -28 39.5t-9 55.5q0 60 27 104q16 -19 24 -28q14 -16 28 -24q12 -12 28 -12q13 0 26.5 8.5 t18.5 20.5l104 172q5 8 5 19q0 16 -11 28.5t-18 9.5l-39 -67l-19 -6l47 85q-32 25 -69 35q72 137 169 239q77 81 199 167q22 -38 29 -50q12 -20 21.5 -29.5t19.5 -15t19 -5.5t19 8l190 133q14 11 14 30q0 18 -14 31l-81 -57l-24 7l93 69q-51 50 -128 71q-56 15 -136 15z M131 430q59 109 124 185q73 86 168 146l45 19q-114 -80 -204 -185q-72 -84 -145 -206zM205 246l-58 41l24 5l50 -24zM103 91q-33 32 -51.5 74.5t-18.5 80.5q27 -68 37 -86q16 -28 37 -45zM766 808q-67 38 -107 54t-82 20q13 3 18 3.5t18 0.5q40 0 93.5 -13t100.5 -36z M583 734v34l63 -70l-22 -15z" />
<glyph unicode="&#x2000;" horiz-adv-x="597" />
<glyph unicode="&#x2001;" horiz-adv-x="1194" />
<glyph unicode="&#x2002;" horiz-adv-x="597" />
<glyph unicode="&#x2003;" horiz-adv-x="1194" />
<glyph unicode="&#x2004;" horiz-adv-x="398" />
<glyph unicode="&#x2005;" horiz-adv-x="298" />
<glyph unicode="&#x2006;" horiz-adv-x="199" />
<glyph unicode="&#x2007;" horiz-adv-x="199" />
<glyph unicode="&#x2008;" horiz-adv-x="149" />
<glyph unicode="&#x2009;" horiz-adv-x="238" />
<glyph unicode="&#x200a;" horiz-adv-x="66" />
<glyph unicode="&#x2013;" horiz-adv-x="500" d="M100 250v100h300v-100h-300z" />
<glyph unicode="&#x2014;" horiz-adv-x="1000" d="M100 250v100h800v-100h-800z" />
<glyph unicode="&#x202f;" horiz-adv-x="238" />
<glyph unicode="&#x205f;" horiz-adv-x="298" />
<glyph unicode="&#x2122;" horiz-adv-x="1777" d="M1252 874l20 -16q21 22 46 22q27 0 42 -26q-6 2 -13 3t-13 1q-40 0 -40 -36q0 -7 1 -11q70 -134 130 -205q41 -49 96 -87q65 -45 84 -63q12 -10 12 -16q0 -12 -22 -12q-7 -1 -11 -1q-54 0 -100 40q-50 43 -69 114q-11 50 -53 50q-15 0 -31 -4l161 -207q19 -26 25 -49 q46 -25 86 -25t63.5 24.5t23.5 57.5q0 23 -12 46q-25 40 -82 74q-72 42 -104 74q-65 64 -117 184q12 14 12 33q0 8 -3 17q-9 21 -23 33t-36 12q-30 0 -73 -27zM1260 696q25 35 25 78q0 62 -50 100q-11 10 -23 17t-32 16h-24q-158 -20 -308 -94q-129 -64 -257 -171 q-11 -13 -15 -25q-13 -39 -13 -85q0 -24 5.5 -50t25 -49t50.5 -30l455 -397q10 -5 20 -5t20 5q99 50 191 106q84 51 184 120q10 6 11 18q0 45 -12.5 93t-28.5 66zM673 391l-18 14q45 0 60 3q27 6 55 27q14 12 23.5 25.5t16.5 30.5q5 17 5 31q0 27 -12 51q-1 6 -1 17 q0 49 36 78v-24q-22 -24 -22 -58q0 -11 3 -20.5t5.5 -24.5t2.5 -26q0 -58 -43 -91t-111 -33zM1051 769v-38l-21 8l-121 -59q-4 10 -14 21q77 46 156 68zM1144 699q0 73 -51 108l31 11q-2 -4 -2 -12q0 -13 11 -31q5 -7 10 -20.5t10 -37.5q4 -10 12.5 -13t24.5 -3q12 0 26 1 t15 1q9 -1 13 -1q-32 -15 -60 -15q-23 0 -40 12zM1230 673q10 5 16 5t13 -7l198 -256q5 -5 5 -12t-7 -11l-321 -182q-8 -3 -15 -3q-10 0 -16 6l-190 282q-5 8 -5 13q0 11 14 18zM1205 392l28 -41l-35 -19l-29 41zM1261 422l-36 -19l29 -42l36 21zM1316 452l29 -40l-34 -19 l-30 41zM1165 450l24 -35l-37 -20l-24 36zM1220 480l25 -35l-36 -19l-25 34zM1276 508l-36 -19l26 -34l35 19zM1237 563l25 -35l-37 -19l-26 35zM1181 534l25 -35l-36 -18l-25 36zM1126 506l25 -36l-37 -19l-26 36zM1089 560l24 -34l-39 -20l-24 35zM1168 554l-35 -19 l-24 34l35 17zM1200 614l-38 -19l24 -33l37 19zM1317 460l-45 -24l-8 -9l-2 3l-46 -25l-9 -8l-1 4l-47 -25l-15 -18l37 -53l45 25l7 8l3 -4l46 27l9 9l2 -3l45 25l15 17zM1278 516l31 -44l-17 -18l-45 -24l-3 3l-7 -9l-46 -25l-2 4l-9 -8l-46 -24l-32 45l17 18l47 25l3 -4 l7 8l46 24l3 -5l6 10zM1268 527l-17 -19l-45 -23l-2 2l-8 -7l-46 -24l-2 3l-7 -9l-47 -24l-31 45l16 19l49 24l2 -4l7 9l45 24l3 -4l6 7l47 24zM1231 581l-29 39l-48 -22l-7 -7l-2 2l-44 -21l-7 -8l-3 3l-49 -24l-17 -18l30 -43l49 24l6 8l3 -2l45 23l7 7l2 -3l47 24z M45 398q33 -93 76 -187q50 -110 94 -181q12 -20 28 -25t46 -5l138 12q51 0 83 41q-18 0 -37 -0.5t-40 -0.5l-98 -6q-30 0 -44 6l-210 429q-15 32 -29.5 93t-14.5 95l-16 240l31 3q16 0 20 -15l44 -180l188 -16l-27 182q0 20 -13 20l-240 20q-16 -7 -20 -22t-4 -51l16 -281 q7 -73 8 -84q7 -49 21 -87zM94 528l223 -410l179 3q21 0 17 -20v-22l16 -8l3 26q0 14 -1.5 23t-8.5 19l-217 381q-20 36 -20 81q0 21 5 43t14 45l-190 16q-16 -28 -25.5 -57.5t-9.5 -57.5q0 -33 15 -62zM437 259l-174 -3l-127 232l172 -2zM171 446q8 -6 15 -6q14 0 17 10 q-16 0 -26 6t-10 19q-4 -1 -4 -11q0 -11 8 -18zM200 391q8 -6 15 -6q12 0 17 10q-17 0 -24 4q-12 10 -12 21q-4 -4 -4 -12q0 -10 8 -17zM230 334q8 -6 15 -6q13 0 18 10l-3 2q-11 -5 -22 2.5t-11 20.5l-3 1q-2 -4 -2 -11q0 -11 8 -19zM260 279q8 -6 15 -6q13 0 16 10l-2 2 q-3 -1 -10 -1q-6 0 -12 3q-10 7 -12 21q-3 -3 -3 -11q0 -11 8 -18zM228 444q8 -6 15 -6q15 0 17 9l-2 2q-14 -4 -22 3q-3 2 -7 7.5t-5 12.5l-3 1q-2 -4 -2 -10q0 -13 9 -19zM257 388q6 -6 16 -6q13 0 16 10q-17 0 -25 4q-11 9 -11 21q-4 -4 -4 -12q0 -10 8 -17zM288 332 q6 -6 15 -6q14 0 16 9q-17 0 -23 5q-11 6 -13 19l-2 2q-2 -4 -2 -9q0 -14 9 -20zM317 275q-9 8 -9 20q0 8 3 11q4 -15 12 -20.5t15 -5.5q3 0 9 2l2 -2q-4 -10 -18 -10q-8 0 -14 5zM281 444q8 -6 15 -6q15 0 17 9l-2 2q-13 -3 -23.5 3.5t-10.5 19.5q-2 2 -3 1q-2 -2 -2 -10 q0 -13 9 -19zM310 388q8 -6 15 -6q13 0 16 10q-15 0 -24.5 5.5t-11.5 19.5q-3 -3 -3 -11q0 -11 8 -18zM340 332q-9 8 -9 20q0 5 2 9l3 -1q2 -15 12 -20q9 -7 22 -3l3 -2q-5 -9 -18 -9q-7 0 -15 6zM370 276q8 -6 15 -6q13 0 16 10q-15 -1 -24.5 5.5t-11.5 19.5q-4 -4 -4 -10 q0 -10 9 -19zM311 212l8 -10l121 5l-7 9zM314 233l10 -10l89 1l-7 11zM340 194l92 2l6 -10l-89 -3zM175 828l28 -1q9 0 11 -10l2 -14q0 -8 -8 -8h-25q-6 0 -11 9l-5 16q0 8 8 8zM201 570q-25 0 -43.5 7t-21.5 18t11.5 18t39.5 7q24 0 43.5 -7t21.5 -18q2 -10 -13 -17.5 t-38 -7.5z" />
<glyph unicode="&#xe000;" horiz-adv-x="925" d="M0 925h925v-925h-925v925z" />
<glyph unicode="&#xfb01;" horiz-adv-x="2855" d="M2110 537q-100 -11 -167 -68t-67 -133q0 -85 79.5 -144.5t192.5 -59.5t193.5 59.5t80.5 144.5q0 75 -68 132.5t-168 68.5q-16 5 -16 24q0 11 6 23t20.5 15.5t41.5 6.5q34 0 68 17q40 20 40 50l-1 65q53 0 95 -32.5t46 -71.5q62 -15 153 -15q83 0 149 12q0 59 -18 105 q-21 55 -62 72q-74 34 -156 50t-211 16q0 18 -4.5 31t-17.5 15q-10 2 -15.5 -14t-5.5 -34q-4 -3 -52 -6t-98 -3q-67 0 -105.5 2.5t-42.5 6.5q0 18 -5.5 34t-17.5 14t-17.5 -15.5t-3.5 -30.5q-128 0 -210.5 -16t-156.5 -50q-40 -17 -60 -68t-20 -109q66 -12 149 -12 q90 0 153 15q4 38 46 71t95 33l-1 -65q0 -30 39 -50q33 -17 69 -17q16 -2 33 -4q22 -5 27 -16q8 -13 8 -26q0 -16 -17 -23zM2298 738v-36q0 -33 -22 -42q-14 -6 -58 -6q-16 0 -45.5 -1t-43.5 -1h-17h-13q-10 2 -15 2q-46 0 -61 5q-27 9 -27 40v39h302zM1551 537 q15 -6 46.5 -9t61.5 -3q36 0 62.5 2t45 8t27.5 21.5t13 46.5q-38 -4 -81.5 -7t-78.5 -3q-54 0 -134 8q0 -28 8 -42.5t30 -21.5zM2745 537q22 7 30.5 22t8.5 42q-39 -4 -69 -6t-65 -2q-60 0 -97 3q-42 5 -63 7q7 -57 39.5 -67.5t107.5 -10.5q41 0 65.5 2.5t42.5 9.5z M1812 409l-110 -103q-20 -20 -32 -36q-18 -24 -18 -42v-159q0 -23 21 -46t42 -23h871q23 0 47.5 22.5t24.5 46.5v165q0 16 -12 32q-5 7 -42 40l-123 103q-19 20 -34 31q-22 16 -46 21q21 -20 36 -54.5t15 -73.5q0 -31 -10.5 -61.5t-33.5 -59.5q-41 -52 -106.5 -81 t-155.5 -29q-91 0 -152 27t-109 86q-20 25 -29.5 53.5t-9.5 56.5q0 44 19 83t42 54q-32 0 -64 -25q-10 -7 -31 -28zM2259 416q-15 0 -27 11t-12 28q0 16 11.5 27.5t27.5 11.5q17 0 28 -11t11 -28t-11 -28t-28 -11zM2157 435q-17 0 -28 11t-11 28t11 28t28 11q16 0 27 -11 t11 -28t-10 -28t-28 -11zM2060 422q-16 0 -27 11t-11 28q0 16 11 27t27 11q17 0 28 -11t11 -27q0 -17 -11 -28t-28 -11zM1972 370q-18 0 -29 11t-11 28t11 28t29 11q15 0 27 -11t12 -28q0 -16 -11.5 -27.5t-27.5 -11.5zM1946 273q-17 0 -28 11t-11 29q0 16 11 27t28 11 q15 0 27 -11t12 -27q0 -17 -11.5 -28.5t-27.5 -11.5zM2011 194q-17 0 -29 11t-12 29q0 16 12.5 27.5t28.5 11.5q15 0 26.5 -11.5t11.5 -27.5t-11 -28t-27 -12zM2110 162q-16 0 -27.5 11.5t-11.5 28.5q0 15 11.5 26.5t27.5 11.5q15 0 27 -11t12 -27q0 -17 -11.5 -28.5 t-27.5 -11.5zM2217 169q-17 0 -28.5 11.5t-11.5 27.5q0 17 11.5 28.5t28.5 11.5q16 0 27 -11t11 -29q0 -15 -11 -27t-27 -12zM2310 215q-17 0 -28.5 11.5t-11.5 27.5q0 17 11.5 28.5t28.5 11.5q16 0 27.5 -11.5t11.5 -28.5q0 -16 -11.5 -27.5t-27.5 -11.5zM718 360 q-69 0 -116.5 40t-47.5 100q0 58 48 99t116 41q67 0 115 -41t48 -99t-48 -99t-115 -41zM281 233q2 17 17 46q10 20 31 54l28 44q23 29 47 29q19 0 49 -43q19 -30 38 -59q46 -51 105 -71q51 -17 133 -17q71 0 127 21t88 67q40 59 61 78q27 24 50 24q16 0 36 -29 q21 -35 26 -44q23 -35 31 -53q13 -27 13 -49v-28t1 -31q0 -34 -2.5 -54.5t-11.5 -34.5q-14 -19 -40 -33t-56 -14h-665q-36 0 -58 11.5t-36 40.5q-7 13 -11 42.5t-4 54.5q0 31 3 48zM77 588q-27 14 -27 44q0 12 1.5 19.5t7.5 24.5q10 35 49 73q32 31 66 50q72 40 221.5 62.5 t316.5 22.5q163 0 302 -21t214 -63q37 -20 69 -50q37 -35 57 -73q11 -21 15 -30q8 -18 8 -29q0 -22 -29 -30l-247 1q-6 33 -34 75q-18 26 -46 58q-62 21 -137.5 32.5t-157.5 11.5q-83 0 -178.5 -13t-158.5 -31q-19 -23 -40 -66q-13 -27 -28 -69zM44 551h308q12 39 26 71 q18 39 41 69q64 18 144.5 27.5t163.5 9.5q72 0 140.5 -9t130.5 -28q27 -30 43 -59q21 -37 29 -80h311q22 6 32.5 19.5t10.5 33.5q0 13 -4 27t-11 28q-24 48 -63.5 92.5t-78.5 67.5q-81 49 -232.5 76t-323.5 27q-182 0 -343 -27.5t-240 -77.5q-34 -20 -67 -65 q-36 -49 -50 -97q-3 -13 -4 -19t-1 -18q0 -47 38 -68zM234 235q-3 -20 -3 -46q0 -39 4.5 -69.5t15.5 -55.5q17 -36 40.5 -50t64.5 -14h724q32 0 61.5 17.5t44.5 41.5q12 20 16.5 62.5t4.5 84.5v27q0 22 -12 48q-5 11 -50 81q-24 35 -40 54q-33 39 -53 39q-33 0 -62 -28 q-20 -19 -46 -62q-36 -59 -87 -84.5t-127 -25.5q-86 0 -134.5 22t-100.5 89q-30 39 -43 53q-33 35 -54 35q-31 0 -70 -51q-14 -21 -28 -41q-32 -49 -38 -60q-22 -38 -28 -67zM718 324q84 0 141.5 51.5t57.5 126.5q0 73 -58 125t-141 52q-82 0 -141 -52t-59 -125 q0 -75 58.5 -126.5t141.5 -51.5z" />
<glyph unicode="&#xfb02;" horiz-adv-x="3386" d="M2715 709h-638l-56 -54l-1 -134l-305 -267q-55 -58 -74 -132v-122h1507l-2 122q-12 76 -73 131l-306 270v134zM1795 868q-179 -92 -275 -246q-6 -51 -8.5 -111t-2.5 -126v-34q38 -62 104 -104l354 306v94l109 110l641 -1l99 -97v-112l356 -300q83 36 122 110v64 q0 36 -0.5 83.5t-8.5 109.5q-51 82 -117 148q-58 57 -138 110q-159 24 -311.5 37.5t-282.5 13.5q-154 0 -307.5 -13t-333.5 -42zM2094 634h599v-429h-599v429zM2169 584v-50h97v50h-97zM2169 493v-52h97v52h-97zM2169 399v-51h97v51h-97zM2169 309v-51h97v51h-97zM2344 584 v-50h97v50h-97zM2344 493v-52h97v52h-97zM2344 399v-51h97v51h-97zM2344 309v-51h97v51h-97zM2525 584v-50h95v50h-95zM2525 493v-52h95v52h-95zM2525 399v-51h95v51h-95zM2525 309v-51h95v51h-95zM718 360q-69 0 -116.5 40t-47.5 100q0 58 48 99t116 41q67 0 115 -41 t48 -99t-48 -99t-115 -41zM281 233q2 17 17 46q10 20 31 54l28 44q23 29 47 29q19 0 49 -43q19 -30 38 -59q46 -51 105 -71q51 -17 133 -17q71 0 127 21t88 67q40 59 61 78q27 24 50 24q16 0 36 -29q21 -35 26 -44q23 -35 31 -53q13 -27 13 -49v-28t1 -31q0 -34 -2.5 -54.5 t-11.5 -34.5q-14 -19 -40 -33t-56 -14h-665q-36 0 -58 11.5t-36 40.5q-7 13 -11 42.5t-4 54.5q0 31 3 48zM77 588q-27 14 -27 44q0 12 1.5 19.5t7.5 24.5q10 35 49 73q32 31 66 50q72 40 221.5 62.5t316.5 22.5q163 0 302 -21t214 -63q37 -20 69 -50q37 -35 57 -73 q11 -21 15 -30q8 -18 8 -29q0 -22 -29 -30l-247 1q-6 33 -34 75q-18 26 -46 58q-62 21 -137.5 32.5t-157.5 11.5q-83 0 -178.5 -13t-158.5 -31q-19 -23 -40 -66q-13 -27 -28 -69zM44 551h308q12 39 26 71q18 39 41 69q64 18 144.5 27.5t163.5 9.5q72 0 140.5 -9t130.5 -28 q27 -30 43 -59q21 -37 29 -80h311q22 6 32.5 19.5t10.5 33.5q0 13 -4 27t-11 28q-24 48 -63.5 92.5t-78.5 67.5q-81 49 -232.5 76t-323.5 27q-182 0 -343 -27.5t-240 -77.5q-34 -20 -67 -65q-36 -49 -50 -97q-3 -13 -4 -19t-1 -18q0 -47 38 -68zM234 235q-3 -20 -3 -46 q0 -39 4.5 -69.5t15.5 -55.5q17 -36 40.5 -50t64.5 -14h724q32 0 61.5 17.5t44.5 41.5q12 20 16.5 62.5t4.5 84.5v27q0 22 -12 48q-5 11 -50 81q-24 35 -40 54q-33 39 -53 39q-33 0 -62 -28q-20 -19 -46 -62q-36 -59 -87 -84.5t-127 -25.5q-86 0 -134.5 22t-100.5 89 q-30 39 -43 53q-33 35 -54 35q-31 0 -70 -51q-14 -21 -28 -41q-32 -49 -38 -60q-22 -38 -28 -67zM718 324q84 0 141.5 51.5t57.5 126.5q0 73 -58 125t-141 52q-82 0 -141 -52t-59 -125q0 -75 58.5 -126.5t141.5 -51.5z" />
<glyph unicode="&#xfb03;" horiz-adv-x="4362" d="M3617 537q-100 -11 -167 -68t-67 -133q0 -85 79.5 -144.5t192.5 -59.5t193.5 59.5t80.5 144.5q0 75 -68 132.5t-168 68.5q-16 5 -16 24q0 11 6 23t20.5 15.5t41.5 6.5q34 0 68 17q40 20 40 50l-1 65q53 0 95 -32.5t46 -71.5q62 -15 153 -15q83 0 149 12q0 59 -18 105 q-21 55 -62 72q-74 34 -156 50t-211 16q0 18 -4.5 31t-17.5 15q-10 2 -15.5 -14t-5.5 -34q-4 -3 -52 -6t-98 -3q-67 0 -105.5 2.5t-42.5 6.5q0 18 -5.5 34t-17.5 14t-17.5 -15.5t-3.5 -30.5q-128 0 -210.5 -16t-156.5 -50q-40 -17 -60 -68t-20 -109q66 -12 149 -12 q90 0 153 15q4 38 46 71t95 33l-1 -65q0 -30 39 -50q33 -17 69 -17q16 -2 33 -4q22 -5 27 -16q8 -13 8 -26q0 -16 -17 -23zM3805 738v-36q0 -33 -22 -42q-14 -6 -58 -6q-16 0 -45.5 -1t-43.5 -1h-17h-13q-10 2 -15 2q-46 0 -61 5q-27 9 -27 40v39h302zM3058 537 q15 -6 46.5 -9t61.5 -3q36 0 62.5 2t45 8t27.5 21.5t13 46.5q-38 -4 -81.5 -7t-78.5 -3q-54 0 -134 8q0 -28 8 -42.5t30 -21.5zM4252 537q22 7 30.5 22t8.5 42q-39 -4 -69 -6t-65 -2q-60 0 -97 3q-42 5 -63 7q7 -57 39.5 -67.5t107.5 -10.5q41 0 65.5 2.5t42.5 9.5z M3319 409l-110 -103q-20 -20 -32 -36q-18 -24 -18 -42v-159q0 -23 21 -46t42 -23h871q23 0 47.5 22.5t24.5 46.5v165q0 16 -12 32q-5 7 -42 40l-123 103q-19 20 -34 31q-22 16 -46 21q21 -20 36 -54.5t15 -73.5q0 -31 -10.5 -61.5t-33.5 -59.5q-41 -52 -106.5 -81 t-155.5 -29q-91 0 -152 27t-109 86q-20 25 -29.5 53.5t-9.5 56.5q0 44 19 83t42 54q-32 0 -64 -25q-10 -7 -31 -28zM3766 416q-15 0 -27 11t-12 28q0 16 11.5 27.5t27.5 11.5q17 0 28 -11t11 -28t-11 -28t-28 -11zM3664 435q-17 0 -28 11t-11 28t11 28t28 11q16 0 27 -11 t11 -28t-10 -28t-28 -11zM3567 422q-16 0 -27 11t-11 28q0 16 11 27t27 11q17 0 28 -11t11 -27q0 -17 -11 -28t-28 -11zM3479 370q-18 0 -29 11t-11 28t11 28t29 11q15 0 27 -11t12 -28q0 -16 -11.5 -27.5t-27.5 -11.5zM3453 273q-17 0 -28 11t-11 29q0 16 11 27t28 11 q15 0 27 -11t12 -27q0 -17 -11.5 -28.5t-27.5 -11.5zM3518 194q-17 0 -29 11t-12 29q0 16 12.5 27.5t28.5 11.5q15 0 26.5 -11.5t11.5 -27.5t-11 -28t-27 -12zM3617 162q-16 0 -27.5 11.5t-11.5 28.5q0 15 11.5 26.5t27.5 11.5q15 0 27 -11t12 -27q0 -17 -11.5 -28.5 t-27.5 -11.5zM3724 169q-17 0 -28.5 11.5t-11.5 27.5q0 17 11.5 28.5t28.5 11.5q16 0 27 -11t11 -29q0 -15 -11 -27t-27 -12zM3817 215q-17 0 -28.5 11.5t-11.5 27.5q0 17 11.5 28.5t28.5 11.5q16 0 27.5 -11.5t11.5 -28.5q0 -16 -11.5 -27.5t-27.5 -11.5zM2225 360 q-69 0 -116.5 40t-47.5 100q0 58 48 99t116 41q67 0 115 -41t48 -99t-48 -99t-115 -41zM1788 233q2 17 17 46q10 20 31 54l28 44q23 29 47 29q19 0 49 -43q19 -30 38 -59q46 -51 105 -71q51 -17 133 -17q71 0 127 21t88 67q40 59 61 78q27 24 50 24q16 0 36 -29 q21 -35 26 -44q23 -35 31 -53q13 -27 13 -49v-28t1 -31q0 -34 -2.5 -54.5t-11.5 -34.5q-14 -19 -40 -33t-56 -14h-665q-36 0 -58 11.5t-36 40.5q-7 13 -11 42.5t-4 54.5q0 31 3 48zM1584 588q-27 14 -27 44q0 12 1.5 19.5t7.5 24.5q10 35 49 73q32 31 66 50 q72 40 221.5 62.5t316.5 22.5q163 0 302 -21t214 -63q37 -20 69 -50q37 -35 57 -73q11 -21 15 -30q8 -18 8 -29q0 -22 -29 -30l-247 1q-6 33 -34 75q-18 26 -46 58q-62 21 -137.5 32.5t-157.5 11.5q-83 0 -178.5 -13t-158.5 -31q-19 -23 -40 -66q-13 -27 -28 -69zM1551 551 h308q12 39 26 71q18 39 41 69q64 18 144.5 27.5t163.5 9.5q72 0 140.5 -9t130.5 -28q27 -30 43 -59q21 -37 29 -80h311q22 6 32.5 19.5t10.5 33.5q0 13 -4 27t-11 28q-24 48 -63.5 92.5t-78.5 67.5q-81 49 -232.5 76t-323.5 27q-182 0 -343 -27.5t-240 -77.5 q-34 -20 -67 -65q-36 -49 -50 -97q-3 -13 -4 -19t-1 -18q0 -47 38 -68zM1741 235q-3 -20 -3 -46q0 -39 4.5 -69.5t15.5 -55.5q17 -36 40.5 -50t64.5 -14h724q32 0 61.5 17.5t44.5 41.5q12 20 16.5 62.5t4.5 84.5v27q0 22 -12 48q-5 11 -50 81q-24 35 -40 54q-33 39 -53 39 q-33 0 -62 -28q-20 -19 -46 -62q-36 -59 -87 -84.5t-127 -25.5q-86 0 -134.5 22t-100.5 89q-30 39 -43 53q-33 35 -54 35q-31 0 -70 -51q-14 -21 -28 -41q-32 -49 -38 -60q-22 -38 -28 -67zM2225 324q84 0 141.5 51.5t57.5 126.5q0 73 -58 125t-141 52q-82 0 -141 -52 t-59 -125q0 -75 58.5 -126.5t141.5 -51.5zM718 360q-69 0 -116.5 40t-47.5 100q0 58 48 99t116 41q67 0 115 -41t48 -99t-48 -99t-115 -41zM281 233q2 17 17 46q10 20 31 54l28 44q23 29 47 29q19 0 49 -43q19 -30 38 -59q46 -51 105 -71q51 -17 133 -17q71 0 127 21t88 67 q40 59 61 78q27 24 50 24q16 0 36 -29q21 -35 26 -44q23 -35 31 -53q13 -27 13 -49v-28t1 -31q0 -34 -2.5 -54.5t-11.5 -34.5q-14 -19 -40 -33t-56 -14h-665q-36 0 -58 11.5t-36 40.5q-7 13 -11 42.5t-4 54.5q0 31 3 48zM77 588q-27 14 -27 44q0 12 1.5 19.5t7.5 24.5 q10 35 49 73q32 31 66 50q72 40 221.5 62.5t316.5 22.5q163 0 302 -21t214 -63q37 -20 69 -50q37 -35 57 -73q11 -21 15 -30q8 -18 8 -29q0 -22 -29 -30l-247 1q-6 33 -34 75q-18 26 -46 58q-62 21 -137.5 32.5t-157.5 11.5q-83 0 -178.5 -13t-158.5 -31q-19 -23 -40 -66 q-13 -27 -28 -69zM44 551h308q12 39 26 71q18 39 41 69q64 18 144.5 27.5t163.5 9.5q72 0 140.5 -9t130.5 -28q27 -30 43 -59q21 -37 29 -80h311q22 6 32.5 19.5t10.5 33.5q0 13 -4 27t-11 28q-24 48 -63.5 92.5t-78.5 67.5q-81 49 -232.5 76t-323.5 27q-182 0 -343 -27.5 t-240 -77.5q-34 -20 -67 -65q-36 -49 -50 -97q-3 -13 -4 -19t-1 -18q0 -47 38 -68zM234 235q-3 -20 -3 -46q0 -39 4.5 -69.5t15.5 -55.5q17 -36 40.5 -50t64.5 -14h724q32 0 61.5 17.5t44.5 41.5q12 20 16.5 62.5t4.5 84.5v27q0 22 -12 48q-5 11 -50 81q-24 35 -40 54 q-33 39 -53 39q-33 0 -62 -28q-20 -19 -46 -62q-36 -59 -87 -84.5t-127 -25.5q-86 0 -134.5 22t-100.5 89q-30 39 -43 53q-33 35 -54 35q-31 0 -70 -51q-14 -21 -28 -41q-32 -49 -38 -60q-22 -38 -28 -67zM718 324q84 0 141.5 51.5t57.5 126.5q0 73 -58 125t-141 52 q-82 0 -141 -52t-59 -125q0 -75 58.5 -126.5t141.5 -51.5z" />
<glyph unicode="&#xfb04;" horiz-adv-x="4893" d="M4222 709h-638l-56 -54l-1 -134l-305 -267q-55 -58 -74 -132v-122h1507l-2 122q-12 76 -73 131l-306 270v134zM3302 868q-179 -92 -275 -246q-6 -51 -8.5 -111t-2.5 -126v-34q38 -62 104 -104l354 306v94l109 110l641 -1l99 -97v-112l356 -300q83 36 122 110v64 q0 36 -0.5 83.5t-8.5 109.5q-51 82 -117 148q-58 57 -138 110q-159 24 -311.5 37.5t-282.5 13.5q-154 0 -307.5 -13t-333.5 -42zM3601 634h599v-429h-599v429zM3676 584v-50h97v50h-97zM3676 493v-52h97v52h-97zM3676 399v-51h97v51h-97zM3676 309v-51h97v51h-97zM3851 584 v-50h97v50h-97zM3851 493v-52h97v52h-97zM3851 399v-51h97v51h-97zM3851 309v-51h97v51h-97zM4032 584v-50h95v50h-95zM4032 493v-52h95v52h-95zM4032 399v-51h95v51h-95zM4032 309v-51h95v51h-95zM2225 360q-69 0 -116.5 40t-47.5 100q0 58 48 99t116 41q67 0 115 -41 t48 -99t-48 -99t-115 -41zM1788 233q2 17 17 46q10 20 31 54l28 44q23 29 47 29q19 0 49 -43q19 -30 38 -59q46 -51 105 -71q51 -17 133 -17q71 0 127 21t88 67q40 59 61 78q27 24 50 24q16 0 36 -29q21 -35 26 -44q23 -35 31 -53q13 -27 13 -49v-28t1 -31q0 -34 -2.5 -54.5 t-11.5 -34.5q-14 -19 -40 -33t-56 -14h-665q-36 0 -58 11.5t-36 40.5q-7 13 -11 42.5t-4 54.5q0 31 3 48zM1584 588q-27 14 -27 44q0 12 1.5 19.5t7.5 24.5q10 35 49 73q32 31 66 50q72 40 221.5 62.5t316.5 22.5q163 0 302 -21t214 -63q37 -20 69 -50q37 -35 57 -73 q11 -21 15 -30q8 -18 8 -29q0 -22 -29 -30l-247 1q-6 33 -34 75q-18 26 -46 58q-62 21 -137.5 32.5t-157.5 11.5q-83 0 -178.5 -13t-158.5 -31q-19 -23 -40 -66q-13 -27 -28 -69zM1551 551h308q12 39 26 71q18 39 41 69q64 18 144.5 27.5t163.5 9.5q72 0 140.5 -9t130.5 -28 q27 -30 43 -59q21 -37 29 -80h311q22 6 32.5 19.5t10.5 33.5q0 13 -4 27t-11 28q-24 48 -63.5 92.5t-78.5 67.5q-81 49 -232.5 76t-323.5 27q-182 0 -343 -27.5t-240 -77.5q-34 -20 -67 -65q-36 -49 -50 -97q-3 -13 -4 -19t-1 -18q0 -47 38 -68zM1741 235q-3 -20 -3 -46 q0 -39 4.5 -69.5t15.5 -55.5q17 -36 40.5 -50t64.5 -14h724q32 0 61.5 17.5t44.5 41.5q12 20 16.5 62.5t4.5 84.5v27q0 22 -12 48q-5 11 -50 81q-24 35 -40 54q-33 39 -53 39q-33 0 -62 -28q-20 -19 -46 -62q-36 -59 -87 -84.5t-127 -25.5q-86 0 -134.5 22t-100.5 89 q-30 39 -43 53q-33 35 -54 35q-31 0 -70 -51q-14 -21 -28 -41q-32 -49 -38 -60q-22 -38 -28 -67zM2225 324q84 0 141.5 51.5t57.5 126.5q0 73 -58 125t-141 52q-82 0 -141 -52t-59 -125q0 -75 58.5 -126.5t141.5 -51.5zM718 360q-69 0 -116.5 40t-47.5 100q0 58 48 99 t116 41q67 0 115 -41t48 -99t-48 -99t-115 -41zM281 233q2 17 17 46q10 20 31 54l28 44q23 29 47 29q19 0 49 -43q19 -30 38 -59q46 -51 105 -71q51 -17 133 -17q71 0 127 21t88 67q40 59 61 78q27 24 50 24q16 0 36 -29q21 -35 26 -44q23 -35 31 -53q13 -27 13 -49v-28 t1 -31q0 -34 -2.5 -54.5t-11.5 -34.5q-14 -19 -40 -33t-56 -14h-665q-36 0 -58 11.5t-36 40.5q-7 13 -11 42.5t-4 54.5q0 31 3 48zM77 588q-27 14 -27 44q0 12 1.5 19.5t7.5 24.5q10 35 49 73q32 31 66 50q72 40 221.5 62.5t316.5 22.5q163 0 302 -21t214 -63q37 -20 69 -50 q37 -35 57 -73q11 -21 15 -30q8 -18 8 -29q0 -22 -29 -30l-247 1q-6 33 -34 75q-18 26 -46 58q-62 21 -137.5 32.5t-157.5 11.5q-83 0 -178.5 -13t-158.5 -31q-19 -23 -40 -66q-13 -27 -28 -69zM44 551h308q12 39 26 71q18 39 41 69q64 18 144.5 27.5t163.5 9.5 q72 0 140.5 -9t130.5 -28q27 -30 43 -59q21 -37 29 -80h311q22 6 32.5 19.5t10.5 33.5q0 13 -4 27t-11 28q-24 48 -63.5 92.5t-78.5 67.5q-81 49 -232.5 76t-323.5 27q-182 0 -343 -27.5t-240 -77.5q-34 -20 -67 -65q-36 -49 -50 -97q-3 -13 -4 -19t-1 -18q0 -47 38 -68z M234 235q-3 -20 -3 -46q0 -39 4.5 -69.5t15.5 -55.5q17 -36 40.5 -50t64.5 -14h724q32 0 61.5 17.5t44.5 41.5q12 20 16.5 62.5t4.5 84.5v27q0 22 -12 48q-5 11 -50 81q-24 35 -40 54q-33 39 -53 39q-33 0 -62 -28q-20 -19 -46 -62q-36 -59 -87 -84.5t-127 -25.5 q-86 0 -134.5 22t-100.5 89q-30 39 -43 53q-33 35 -54 35q-31 0 -70 -51q-14 -21 -28 -41q-32 -49 -38 -60q-22 -38 -28 -67zM718 324q84 0 141.5 51.5t57.5 126.5q0 73 -58 125t-141 52q-82 0 -141 -52t-59 -125q0 -75 58.5 -126.5t141.5 -51.5z" />
</font>
</defs>
</svg>
